<svg width="120" height="117" viewBox="0 0 120 117" fill="none" xmlns="http://www.w3.org/2000/svg">
<path d="M1 19C1 9.05887 9.05888 1 19 1H59.75H100.5C110.441 1 118.5 9.05888 118.5 19V58.5V98C118.5 107.941 110.441 116 100.5 116H19C9.05887 116 1 107.941 1 98V19Z" stroke="black" stroke-width="2"/>
<path d="M61.125 38.5C61.625 38.375 62.1042 38.3958 62.5625 38.5625C63.0208 38.6875 63.4167 38.9167 63.75 39.25C64.125 39.5833 64.4167 39.9792 64.625 40.4375C64.875 40.8958 65 41.3958 65 41.9375C65 42.9792 64.625 43.8542 63.875 44.5625C63.125 45.2292 62.2083 45.5625 61.125 45.5625C59.6667 45.5625 58.5833 45.0417 57.875 44C57.1667 42.9167 56.8125 41.5417 56.8125 39.875C56.8125 37.625 57.3333 35.6667 58.375 34C59.4583 32.2917 61.125 31.0208 63.375 30.1875L64.25 31.375C62.625 32.125 61.4167 33.0625 60.625 34.1875C59.8333 35.3125 59.4375 36.5625 59.4375 37.9375C59.4375 38.3958 59.5208 38.6667 59.6875 38.75C59.8958 38.8333 60.125 38.8333 60.375 38.75L61.125 38.5Z" fill="black"/>
</svg>
