<svg width="127" height="117" viewBox="0 0 127 117" fill="none" xmlns="http://www.w3.org/2000/svg">
<g clip-path="url(#clip0)">
<path d="M1 98V19C1 9.05887 9.05887 1 19 1H63.5H108C117.941 1 126 9.05888 126 19V58.5V98C126 107.941 117.941 116 108 116H19C9.05887 116 1 107.941 1 98Z" stroke="black" stroke-width="2"/>
<path d="M62.6875 60.875C62.6042 60.0417 62.4792 59.25 62.3125 58.5C62.1458 57.7083 61.9583 57.0417 61.75 56.5C61.5417 55.7083 61.3125 55 61.0625 54.375C60.8542 53.7083 60.75 53.0208 60.75 52.3125C60.75 51.3542 60.9792 50.6042 61.4375 50.0625C61.9375 49.4792 62.6042 49.1875 63.4375 49.1875C64.2708 49.1875 64.9375 49.4792 65.4375 50.0625C65.9375 50.6042 66.1875 51.3542 66.1875 52.3125C66.1875 53.0208 66.0625 53.7083 65.8125 54.375C65.5625 55 65.3333 55.7083 65.125 56.5C64.9167 57 64.7292 57.625 64.5625 58.375C64.3958 59.125 64.25 59.9167 64.125 60.75C64.75 60.25 65.3333 59.7292 65.875 59.1875C66.4583 58.6458 66.9375 58.125 67.3125 57.625C67.9375 57.125 68.4792 56.6458 68.9375 56.1875C69.3958 55.6875 69.9167 55.25 70.5 54.875C71.4583 54.2917 72.2917 54.0833 73 54.25C73.7083 54.375 74.2708 54.7917 74.6875 55.5C75.1458 56.2083 75.2292 56.9167 74.9375 57.625C74.6875 58.2917 74.125 58.8542 73.25 59.3125C72.6667 59.6458 72 59.8958 71.25 60.0625C70.5417 60.1875 69.8125 60.3542 69.0625 60.5625C68.3542 60.6458 67.625 60.8125 66.875 61.0625C66.125 61.3125 65.3333 61.6042 64.5 61.9375C65.3333 62.2708 66.125 62.5417 66.875 62.75C67.625 62.9167 68.3542 63.0417 69.0625 63.125C69.8125 63.3333 70.5417 63.5208 71.25 63.6875C71.9583 63.8542 72.6042 64.1042 73.1875 64.4375C75.1042 65.4792 75.5833 66.75 74.625 68.25C73.75 69.7083 72.375 69.9583 70.5 69C69.9167 68.625 69.375 68.1875 68.875 67.6875C68.375 67.1458 67.8333 66.625 67.25 66.125C66.9167 65.6667 66.4583 65.1667 65.875 64.625C65.3333 64.0833 64.75 63.5417 64.125 63C64.25 63.8333 64.3958 64.625 64.5625 65.375C64.7292 66.125 64.9167 66.7708 65.125 67.3125C65.3333 68.1042 65.5625 68.8333 65.8125 69.5C66.0625 70.125 66.1875 70.7917 66.1875 71.5C66.1875 72.4583 65.9375 73.2292 65.4375 73.8125C64.9375 74.3542 64.2708 74.625 63.4375 74.625C62.6042 74.625 61.9375 74.3542 61.4375 73.8125C60.9792 73.2292 60.75 72.4583 60.75 71.5C60.75 70.7917 60.8542 70.125 61.0625 69.5C61.3125 68.8333 61.5417 68.1042 61.75 67.3125C61.9583 66.7292 62.1458 66.0625 62.3125 65.3125C62.4792 64.5625 62.6042 63.7708 62.6875 62.9375C62.1042 63.3958 61.5 63.875 60.875 64.375C60.2917 64.875 59.8333 65.3542 59.5 65.8125C58.9167 66.3542 58.3958 66.8958 57.9375 67.4375C57.4792 67.9375 56.9375 68.375 56.3125 68.75C54.4375 69.7083 53.0208 69.4583 52.0625 68C51.6875 67.3333 51.625 66.6667 51.875 66C52.125 65.2917 52.7083 64.6875 53.625 64.1875C54.2083 63.8542 54.8542 63.625 55.5625 63.5C56.2708 63.375 57.0417 63.2083 57.875 63C58.4583 62.9167 59.0833 62.7917 59.75 62.625C60.4583 62.4167 61.1875 62.1875 61.9375 61.9375C61.1875 61.6042 60.4375 61.3333 59.6875 61.125C58.9792 60.9167 58.3333 60.75 57.75 60.625C56.9167 60.4167 56.1458 60.2708 55.4375 60.1875C54.7292 60.0625 54.0833 59.8333 53.5 59.5C52.5417 59 51.9375 58.4167 51.6875 57.75C51.4375 57.0833 51.5208 56.3958 51.9375 55.6875C52.3958 54.9792 52.9792 54.5417 53.6875 54.375C54.4375 54.2083 55.2708 54.375 56.1875 54.875C56.8125 55.25 57.3542 55.7083 57.8125 56.25C58.2708 56.75 58.7917 57.2708 59.375 57.8125C59.7083 58.3125 60.1875 58.8333 60.8125 59.375C61.4375 59.875 62.0625 60.375 62.6875 60.875Z" fill="black"/>
</g>
<defs>
<clipPath id="clip0">
<rect width="127" height="117" fill="white"/>
</clipPath>
</defs>
</svg>
