<svg width="120" height="117" viewBox="0 0 120 117" fill="none" xmlns="http://www.w3.org/2000/svg">
<path d="M1 19C1 9.05887 9.05888 1 19 1H59.75H100.5C110.441 1 118.5 9.05888 118.5 19V58.5V98C118.5 107.941 110.441 116 100.5 116H19C9.05887 116 1 107.941 1 98V19Z" stroke="black" stroke-width="2"/>
<path d="M58.8125 76.4375C58.3125 76.5625 57.8125 76.5417 57.3125 76.375C56.8542 76.25 56.4375 76.0208 56.0625 75.6875C55.6875 75.3958 55.375 75.0417 55.125 74.625C54.9167 74.1667 54.8125 73.6667 54.8125 73.125C54.8125 72.125 55.1875 71.2917 55.9375 70.625C56.6875 69.9167 57.6042 69.5625 58.6875 69.5625C60.1458 69.5625 61.25 70.0625 62 71.0625C62.7917 72.0625 63.1875 73.375 63.1875 75C63.1875 77.25 62.625 79.1875 61.5 80.8125C60.375 82.4792 58.6875 83.7292 56.4375 84.5625L55.5625 83.5C58.8958 81.9583 60.5625 79.7917 60.5625 77C60.5625 76.5 60.4583 76.2083 60.25 76.125C60.0417 76.0417 59.8125 76.0417 59.5625 76.125L58.8125 76.4375Z" fill="black"/>
</svg>
