<svg width="120" height="117" viewBox="0 0 120 117" fill="none" xmlns="http://www.w3.org/2000/svg">
<path d="M1 19C1 9.05887 9.05888 1 19 1H59.75H100.5C110.441 1 118.5 9.05888 118.5 19V58.5V98C118.5 107.941 110.441 116 100.5 116H19C9.05887 116 1 107.941 1 98V19Z" stroke="black" stroke-width="2"/>
<path d="M44.9375 57.4375C44.9375 54.2708 45.2083 51.2292 45.75 48.3125C46.3333 45.3542 47.2083 42.75 48.375 40.5C49.5417 38.25 51.0208 36.4583 52.8125 35.125C54.6458 33.75 56.7917 33.0625 59.25 33.0625C61.7083 33.0625 63.8333 33.7292 65.625 35.0625C67.4583 36.3958 68.9583 38.1875 70.125 40.4375C71.2917 42.6875 72.1458 45.2917 72.6875 48.25C73.2708 51.1667 73.5625 54.2083 73.5625 57.375C73.5625 60.5833 73.2708 63.6458 72.6875 66.5625C72.1042 69.4792 71.2083 72.0625 70 74.3125C68.8333 76.5208 67.3542 78.2917 65.5625 79.625C63.7708 80.9583 61.6667 81.625 59.25 81.625C56.7917 81.625 54.6458 80.9583 52.8125 79.625C51.0208 78.2917 49.5417 76.5208 48.375 74.3125C47.2083 72.1042 46.3333 69.5417 45.75 66.625C45.2083 63.7083 44.9375 60.6458 44.9375 57.4375ZM59.25 79.4375C60.9167 79.4375 62.3542 78.9167 63.5625 77.875C64.8125 76.7917 65.8333 75.2917 66.625 73.375C67.4583 71.4167 68.0833 69.0833 68.5 66.375C68.9167 63.6667 69.125 60.6875 69.125 57.4375C69.125 54.1875 68.9167 51.2083 68.5 48.5C68.0833 45.75 67.4583 43.3958 66.625 41.4375C65.8333 39.4375 64.8125 37.875 63.5625 36.75C62.3542 35.625 60.9167 35.0625 59.25 35.0625C57.625 35.0625 56.1875 35.625 54.9375 36.75C53.7292 37.8333 52.7083 39.375 51.875 41.375C51.0417 43.3333 50.4167 45.6875 50 48.4375C49.5833 51.1458 49.375 54.125 49.375 57.375C49.375 60.625 49.5833 63.6042 50 66.3125C50.4583 69.0208 51.1042 71.3542 51.9375 73.3125C52.7708 75.2292 53.7917 76.7292 55 77.8125C56.25 78.8958 57.6667 79.4375 59.25 79.4375Z" fill="black"/>
</svg>
