<svg width="120" height="117" viewBox="0 0 120 117" fill="none" xmlns="http://www.w3.org/2000/svg">
<path d="M1 19C1 9.05887 9.05888 1 19 1H59.75H100.5C110.441 1 118.5 9.05888 118.5 19V58.5V98C118.5 107.941 110.441 116 100.5 116H19C9.05887 116 1 107.941 1 98V19Z" stroke="black" stroke-width="2"/>
<path d="M62.25 31.625V72.625C62.25 73.8333 62.3958 74.7917 62.6875 75.5C62.9792 76.1667 63.4167 76.6667 64 77C64.5833 77.3333 65.3125 77.5417 66.1875 77.625C67.0625 77.7083 68.0625 77.7708 69.1875 77.8125V79.5625H51.25V77.75C52.25 77.7083 53.1667 77.6667 54 77.625C54.8333 77.5417 55.5625 77.3333 56.1875 77C56.8125 76.6667 57.2917 76.1667 57.625 75.5C58 74.7917 58.1875 73.7917 58.1875 72.5V41.8125C58.1875 40.6875 58.0833 39.8125 57.875 39.1875C57.7083 38.5625 57.3542 38.1875 56.8125 38.0625C56.2708 37.8958 55.5 37.9583 54.5 38.25C53.5417 38.5417 52.2917 39.0208 50.75 39.6875V37.75L62.25 31.625Z" fill="black"/>
</svg>
