<svg width="120" height="117" viewBox="0 0 120 117" fill="none" xmlns="http://www.w3.org/2000/svg">
<path d="M1 19C1 9.05887 9.05888 1 19 1H59.75H100.5C110.441 1 118.5 9.05888 118.5 19V58.5V98C118.5 107.941 110.441 116 100.5 116H19C9.05887 116 1 107.941 1 98V19Z" stroke="black" stroke-width="2"/>
<path d="M45.6875 80C47.0625 78.5417 48.5208 76.9167 50.0625 75.125C51.6458 73.2917 53.1667 71.4792 54.625 69.6875C56.125 67.8542 57.5 66.1458 58.75 64.5625C60 62.9792 61 61.6875 61.75 60.6875C62.4583 59.7708 63.1667 58.75 63.875 57.625C64.625 56.5 65.2917 55.3333 65.875 54.125C66.5 52.9167 67 51.7083 67.375 50.5C67.7917 49.25 68 48.0417 68 46.875C68 45.8333 67.8333 44.7292 67.5 43.5625C67.1667 42.3958 66.625 41.3333 65.875 40.375C65.125 39.4167 64.125 38.625 62.875 38C61.6667 37.375 60.1667 37.0625 58.375 37.0625C57.0417 37.0625 55.8125 37.3542 54.6875 37.9375C53.6042 38.4792 52.6042 39.2292 51.6875 40.1875C50.8125 41.1458 50.0208 42.25 49.3125 43.5C48.6458 44.75 48.1042 46.0625 47.6875 47.4375L45.8125 47.1875C46.1458 45.5208 46.6667 43.8958 47.375 42.3125C48.0833 40.7292 49 39.3333 50.125 38.125C51.2917 36.875 52.6458 35.8958 54.1875 35.1875C55.7708 34.4375 57.5625 34.0625 59.5625 34.0625C61.3125 34.0625 62.9375 34.375 64.4375 35C65.9792 35.625 67.2917 36.5 68.375 37.625C69.4583 38.75 70.3125 40.0833 70.9375 41.625C71.5625 43.125 71.875 44.7708 71.875 46.5625C71.875 47.8958 71.6667 49.25 71.25 50.625C70.875 52 70.375 53.3333 69.75 54.625C69.1667 55.9167 68.5 57.1458 67.75 58.3125C67 59.4792 66.2708 60.5208 65.5625 61.4375C63.3542 64.3958 61.1667 67.2083 59 69.875C56.8333 72.5 54.4792 75.3125 51.9375 78.3125H65.3125C66.4375 78.3125 67.3542 78.2708 68.0625 78.1875C68.7708 78.1042 69.375 77.9167 69.875 77.625C70.375 77.3333 70.8333 76.8958 71.25 76.3125C71.6667 75.6875 72.1667 74.875 72.75 73.875H74.25L71.375 81.5625H45.6875V80Z" fill="black"/>
</svg>
