<svg width="120" height="117" viewBox="0 0 120 117" fill="none" xmlns="http://www.w3.org/2000/svg">
<path d="M1 19C1 9.05887 9.05888 1 19 1H59.75H100.5C110.441 1 118.5 9.05888 118.5 19V58.5V98C118.5 107.941 110.441 116 100.5 116H19C9.05887 116 1 107.941 1 98V19Z" stroke="black" stroke-width="2"/>
<path d="M71.25 45.5C71.25 46.625 71.0417 47.7292 70.625 48.8125C70.2083 49.8958 69.6458 50.9375 68.9375 51.9375C68.2292 52.9375 67.3958 53.875 66.4375 54.75C65.5208 55.625 64.5208 56.4167 63.4375 57.125C64.8125 57.375 66.1042 57.8333 67.3125 58.5C68.5208 59.1667 69.5833 60.0208 70.5 61.0625C71.4167 62.1042 72.1458 63.2917 72.6875 64.625C73.2292 65.9583 73.5 67.4167 73.5 69C73.5 71.25 73.1667 73.2292 72.5 74.9375C71.8333 76.6042 70.8958 78.0417 69.6875 79.25C68.5208 80.4583 67.1042 81.4792 65.4375 82.3125C63.8125 83.1042 62 83.7083 60 84.125C58.5 84.4583 57.0208 84.5833 55.5625 84.5C54.1042 84.4167 52.7917 84.2083 51.625 83.875C50.5 83.5 49.5833 83.0417 48.875 82.5C48.1667 81.9167 47.8125 81.3125 47.8125 80.6875C47.8125 80.1042 48 79.5833 48.375 79.125C48.7917 78.6667 49.3542 78.4375 50.0625 78.4375C50.8958 78.4375 51.6875 78.6042 52.4375 78.9375C53.2292 79.2708 54 79.6875 54.75 80.1875C55.7917 80.8958 56.6667 81.3542 57.375 81.5625C58.125 81.7292 58.9167 81.7917 59.75 81.75C60.9167 81.7083 62.0833 81.4375 63.25 80.9375C64.4167 80.3958 65.4583 79.6875 66.375 78.8125C67.2917 77.8958 68.0417 76.8333 68.625 75.625C69.2083 74.375 69.5208 73 69.5625 71.5C69.6458 67.1667 68.4792 64.0417 66.0625 62.125C63.6458 60.2083 59.9792 59.5208 55.0625 60.0625L55.125 58.3125C56.875 57.9375 58.4583 57.3542 59.875 56.5625C61.3333 55.7708 62.5625 54.8542 63.5625 53.8125C64.6042 52.7292 65.4167 51.5625 66 50.3125C66.5833 49.0208 66.875 47.7083 66.875 46.375C66.875 44 66.2292 42.1667 64.9375 40.875C63.6458 39.5833 61.875 38.9375 59.625 38.9375C58.4167 38.9375 57.2917 39.1667 56.25 39.625C55.2083 40.0417 54.2708 40.6042 53.4375 41.3125C52.6042 42.0208 51.875 42.8542 51.25 43.8125C50.6667 44.7292 50.1875 45.7083 49.8125 46.75L47.9375 46.6875C48.3125 45.1458 48.8958 43.7292 49.6875 42.4375C50.4792 41.1042 51.4375 39.9583 52.5625 39C53.6875 38.0417 54.9583 37.2917 56.375 36.75C57.7917 36.2083 59.3333 35.9375 61 35.9375C62.375 35.9375 63.6667 36.1667 64.875 36.625C66.125 37.0833 67.2083 37.7292 68.125 38.5625C69.0833 39.3958 69.8333 40.4167 70.375 41.625C70.9583 42.7917 71.25 44.0833 71.25 45.5Z" fill="black"/>
</svg>
