<svg width="120" height="117" viewBox="0 0 120 117" fill="none" xmlns="http://www.w3.org/2000/svg">
<path d="M1 19C1 9.05887 9.05888 1 19 1H59.75H100.5C110.441 1 118.5 9.05888 118.5 19V58.5V98C118.5 107.941 110.441 116 100.5 116H19C9.05887 116 1 107.941 1 98V19Z" stroke="black" stroke-width="2"/>
<path d="M55.1875 83.3125C54.1875 83.3125 53.1042 83.2292 51.9375 83.0625C50.7708 82.8958 49.7083 82.6667 48.75 82.375C47.7917 82.0417 46.9792 81.6458 46.3125 81.1875C45.6875 80.6875 45.375 80.1042 45.375 79.4375C45.375 78.7292 45.625 78.2083 46.125 77.875C46.625 77.5417 47.25 77.375 48 77.375C48.7917 77.375 49.5208 77.5208 50.1875 77.8125C50.8542 78.0625 51.5833 78.375 52.375 78.75C52.9583 79.0833 53.75 79.4792 54.75 79.9375C55.75 80.3958 56.7917 80.6042 57.875 80.5625C59.2083 80.5208 60.4583 80.1875 61.625 79.5625C62.7917 78.8958 63.7917 78 64.625 76.875C65.5 75.7083 66.1875 74.3542 66.6875 72.8125C67.1875 71.2292 67.4375 69.5208 67.4375 67.6875C67.4375 62.8958 65.9375 59.25 62.9375 56.75C59.9375 54.2083 55.4167 53.0833 49.375 53.375C48.875 53.4167 48.4792 53.3333 48.1875 53.125C47.8958 52.9167 47.8125 52.6875 47.9375 52.4375L54.75 35.6875H71.5625L70.8125 39.1875H56.125L52.125 49.5625C55.1667 49.4375 57.8958 49.75 60.3125 50.5C62.7708 51.2083 64.8333 52.2708 66.5 53.6875C68.1667 55.0625 69.4375 56.7708 70.3125 58.8125C71.2292 60.8542 71.6875 63.125 71.6875 65.625C71.6875 68.0417 71.2708 70.3333 70.4375 72.5C69.6042 74.625 68.4375 76.5 66.9375 78.125C65.4792 79.7083 63.7292 80.9792 61.6875 81.9375C59.6875 82.8542 57.5208 83.3125 55.1875 83.3125Z" fill="black"/>
</svg>
