<svg width="120" height="117" viewBox="0 0 120 117" fill="none" xmlns="http://www.w3.org/2000/svg">
<path d="M1 19C1 9.05887 9.05888 1 19 1H59.75H100.5C110.441 1 118.5 9.05888 118.5 19V58.5V98C118.5 107.941 110.441 116 100.5 116H19C9.05887 116 1 107.941 1 98V19Z" stroke="black" stroke-width="2"/>
<path d="M50.875 55.75C52.1667 54.4167 53.5 53.4375 54.875 52.8125C56.25 52.1875 57.6667 51.8125 59.125 51.6875C61.0417 51.5208 62.875 51.7917 64.625 52.5C66.375 53.1667 67.8958 54.2083 69.1875 55.625C70.4792 57 71.5 58.6875 72.25 60.6875C73.0417 62.6458 73.4375 64.8125 73.4375 67.1875C73.4375 69.3958 73.125 71.4583 72.5 73.375C71.9167 75.25 71.0417 76.875 69.875 78.25C68.75 79.625 67.375 80.7083 65.75 81.5C64.125 82.25 62.2917 82.625 60.25 82.625C58.125 82.625 56.1667 82.1458 54.375 81.1875C52.5833 80.1875 51.0417 78.8125 49.75 77.0625C48.4583 75.2708 47.4583 73.1458 46.75 70.6875C46.0417 68.2292 45.6875 65.5417 45.6875 62.625C45.6875 58.7083 46.3333 55.0208 47.625 51.5625C48.9167 48.0625 50.7292 45.0208 53.0625 42.4375C55.4375 39.8542 58.25 37.8125 61.5 36.3125C64.7917 34.7708 68.4375 33.9792 72.4375 33.9375L72.5 35.5625C69.7917 35.7292 67.25 36.3333 64.875 37.375C62.5 38.4167 60.375 39.8125 58.5 41.5625C56.625 43.3125 55.0208 45.3958 53.6875 47.8125C52.3542 50.1875 51.4167 52.8333 50.875 55.75ZM50.25 64.3125C50.1667 66.3958 50.3125 68.4167 50.6875 70.375C51.1042 72.3333 51.7292 74.0625 52.5625 75.5625C53.4375 77.0625 54.5208 78.2708 55.8125 79.1875C57.1042 80.1042 58.6042 80.5625 60.3125 80.5625C61.9792 80.5625 63.375 80.1875 64.5 79.4375C65.625 78.6458 66.5208 77.625 67.1875 76.375C67.8958 75.0833 68.375 73.6458 68.625 72.0625C68.9167 70.4375 69.0208 68.7917 68.9375 67.125C68.8542 65.375 68.5417 63.6875 68 62.0625C67.4583 60.4375 66.7292 59.0208 65.8125 57.8125C64.8958 56.5625 63.7917 55.625 62.5 55C61.2083 54.3333 59.7917 54.1042 58.25 54.3125C56 54.6042 54.125 55.625 52.625 57.375C51.125 59.125 50.3333 61.4375 50.25 64.3125Z" fill="black"/>
</svg>
