<svg width="120" height="117" viewBox="0 0 120 117" fill="none" xmlns="http://www.w3.org/2000/svg">
<path d="M1 19C1 9.05887 9.05888 1 19 1H59.75H100.5C110.441 1 118.5 9.05888 118.5 19V58.5V98C118.5 107.941 110.441 116 100.5 116H19C9.05887 116 1 107.941 1 98V19Z" stroke="black" stroke-width="2"/>
<path d="M73.625 35.375L59.1875 81.5H55.625L68.9375 38.625H55.0625C53.9375 38.625 53 38.7292 52.25 38.9375C51.5417 39.1458 50.8958 39.4792 50.3125 39.9375C49.7708 40.3542 49.25 40.9167 48.75 41.625C48.25 42.2917 47.6667 43.1042 47 44.0625L45.25 43.6875L49.125 34.6875H73.375L73.625 35.375Z" fill="black"/>
</svg>
