<svg width="120" height="117" viewBox="0 0 120 117" fill="none" xmlns="http://www.w3.org/2000/svg">
<path d="M1 19C1 9.05887 9.05888 1 19 1H59.75H100.5C110.441 1 118.5 9.05888 118.5 19V58.5V98C118.5 107.941 110.441 116 100.5 116H19C9.05887 116 1 107.941 1 98V19Z" stroke="black" stroke-width="2"/>
<path d="M71.75 48C71.75 49.4583 71.5208 50.8125 71.0625 52.0625C70.6458 53.2708 70.0833 54.375 69.375 55.375C68.6667 56.375 67.8125 57.2708 66.8125 58.0625C65.8542 58.8542 64.8542 59.5208 63.8125 60.0625C66.8125 61.2708 69.1458 62.8125 70.8125 64.6875C72.4792 66.5625 73.3125 69 73.3125 72C73.3125 74.0833 72.9375 75.9583 72.1875 77.625C71.4792 79.2917 70.4792 80.7292 69.1875 81.9375C67.8958 83.1042 66.375 84 64.625 84.625C62.875 85.25 60.9792 85.5625 58.9375 85.5625C57.1458 85.5625 55.4167 85.2708 53.75 84.6875C52.125 84.1042 50.6875 83.2917 49.4375 82.25C48.1875 81.2083 47.1875 79.9583 46.4375 78.5C45.6875 77 45.3125 75.375 45.3125 73.625C45.3125 72 45.5625 70.4792 46.0625 69.0625C46.6042 67.6458 47.3125 66.375 48.1875 65.25C49.1042 64.0833 50.1458 63.1042 51.3125 62.3125C52.4792 61.4792 53.7292 60.8542 55.0625 60.4375C52.6042 59.2292 50.6042 57.6875 49.0625 55.8125C47.5625 53.9375 46.8125 51.5208 46.8125 48.5625C46.8125 46.8125 47.125 45.2292 47.75 43.8125C48.4167 42.3958 49.3125 41.1875 50.4375 40.1875C51.6042 39.1458 52.9583 38.3542 54.5 37.8125C56.0833 37.2292 57.8125 36.9375 59.6875 36.9375C61.1458 36.9375 62.5833 37.1875 64 37.6875C65.4583 38.1458 66.75 38.8333 67.875 39.75C69.0417 40.6667 69.9792 41.8333 70.6875 43.25C71.3958 44.625 71.75 46.2083 71.75 48ZM50.625 48C50.625 50.3333 51.625 52.4583 53.625 54.375C55.6667 56.2917 58.375 57.7917 61.75 58.875C63.8333 57.7083 65.4583 56.2917 66.625 54.625C67.7917 52.9583 68.375 51 68.375 48.75C68.375 47.1667 68.1458 45.7708 67.6875 44.5625C67.2292 43.3125 66.6042 42.2708 65.8125 41.4375C65.0208 40.5625 64.0833 39.8958 63 39.4375C61.9167 38.9792 60.7708 38.75 59.5625 38.75C58.4375 38.75 57.3333 38.9583 56.25 39.375C55.1667 39.7917 54.2083 40.3958 53.375 41.1875C52.5417 41.9792 51.875 42.9583 51.375 44.125C50.875 45.25 50.625 46.5417 50.625 48ZM48.875 73.5C48.875 75.0833 49.1458 76.5 49.6875 77.75C50.2708 78.9583 51.0208 79.9792 51.9375 80.8125C52.8958 81.6458 53.9792 82.2917 55.1875 82.75C56.3958 83.2083 57.625 83.4375 58.875 83.4375C60.2917 83.4375 61.625 83.2083 62.875 82.75C64.1667 82.25 65.2708 81.5625 66.1875 80.6875C67.1458 79.8125 67.8958 78.7917 68.4375 77.625C69.0208 76.4167 69.3125 75.0833 69.3125 73.625C69.3125 71.7917 69.0417 70.2708 68.5 69.0625C67.9583 67.8125 67.1667 66.75 66.125 65.875C65.125 64.9583 63.875 64.1667 62.375 63.5C60.9167 62.8333 59.25 62.125 57.375 61.375C54.375 62.7083 52.2083 64.3958 50.875 66.4375C49.5417 68.4375 48.875 70.7917 48.875 73.5Z" fill="black"/>
</svg>
