<svg width="120" height="117" viewBox="0 0 120 117" fill="none" xmlns="http://www.w3.org/2000/svg">
<path d="M1 19C1 9.05887 9.05888 1 19 1H59.75H100.5C110.441 1 118.5 9.05888 118.5 19V58.5V98C118.5 107.941 110.441 116 100.5 116H19C9.05887 116 1 107.941 1 98V19Z" stroke="black" stroke-width="2"/>
<path d="M69.125 61.9375C67.8333 63.3125 66.5 64.3125 65.125 64.9375C63.75 65.5625 62.3125 65.9583 60.8125 66.125C58.8542 66.2917 57 66.0208 55.25 65.3125C53.5417 64.6042 52.0417 63.5625 50.75 62.1875C49.4583 60.7708 48.4167 59.0833 47.625 57.125C46.875 55.125 46.5 52.9375 46.5 50.5625C46.5 48.3542 46.7917 46.3125 47.375 44.4375C48 42.5625 48.875 40.9375 50 39.5625C51.1667 38.1875 52.5625 37.1042 54.1875 36.3125C55.8125 35.5208 57.6458 35.125 59.6875 35.125C61.8125 35.125 63.7708 35.625 65.5625 36.625C67.3542 37.5833 68.8958 38.9375 70.1875 40.6875C71.4792 42.4375 72.4792 44.5417 73.1875 47C73.8958 49.4583 74.25 52.1875 74.25 55.1875C74.25 59.1042 73.6042 62.7917 72.3125 66.25C71.0208 69.7083 69.1875 72.75 66.8125 75.375C64.4792 77.9583 61.6667 80 58.375 81.5C55.125 83 51.5 83.7708 47.5 83.8125L47.4375 82.1875C50.2292 81.9375 52.8125 81.2917 55.1875 80.25C57.6042 79.2083 59.75 77.8125 61.625 76.0625C63.5 74.3125 65.0625 72.25 66.3125 69.875C67.6042 67.5 68.5417 64.8542 69.125 61.9375ZM69.6875 53.4375C69.7708 51.3542 69.6042 49.3333 69.1875 47.375C68.8125 45.375 68.1875 43.625 67.3125 42.125C66.4792 40.5833 65.4167 39.3542 64.125 38.4375C62.8333 37.4792 61.3333 37 59.625 37C57.9583 37 56.5417 37.3958 55.375 38.1875C54.25 38.9792 53.3333 40.0208 52.625 41.3125C51.9583 42.6042 51.5 44.0625 51.25 45.6875C51 47.3125 50.9167 48.9583 51 50.625C51.0833 52.375 51.3958 54.0625 51.9375 55.6875C52.4792 57.3125 53.2083 58.75 54.125 60C55.0417 61.2083 56.125 62.1458 57.375 62.8125C58.6667 63.4792 60.1042 63.7083 61.6875 63.5C63.9375 63.125 65.8125 62.0833 67.3125 60.375C68.8125 58.625 69.6042 56.3125 69.6875 53.4375Z" fill="black"/>
</svg>
