<svg width="120" height="117" viewBox="0 0 120 117" fill="none" xmlns="http://www.w3.org/2000/svg">
<path d="M1 19C1 9.05887 9.05888 1 19 1H59.75H100.5C110.441 1 118.5 9.05888 118.5 19V58.5V98C118.5 107.941 110.441 116 100.5 116H19C9.05887 116 1 107.941 1 98V19Z" stroke="black" stroke-width="2"/>
<path d="M59.3125 48.125C58.1875 48.125 57.2708 47.7708 56.5625 47.0625C55.8542 46.3542 55.5 45.4792 55.5 44.4375C55.5 43.3958 55.8542 42.5 56.5625 41.75C57.3125 40.9583 58.2292 40.5625 59.3125 40.5625C60.4375 40.5625 61.3542 40.9375 62.0625 41.6875C62.8125 42.4375 63.1875 43.3542 63.1875 44.4375C63.1875 45.4792 62.8125 46.3542 62.0625 47.0625C61.3542 47.7708 60.4375 48.125 59.3125 48.125ZM59.3125 74.25C58.3542 74.4583 57.4583 74.25 56.625 73.625C55.7917 72.9583 55.375 72.0833 55.375 71C55.375 69.9583 55.7292 69.1042 56.4375 68.4375C57.1875 67.7708 58.1042 67.4375 59.1875 67.4375C60.6458 67.4375 61.75 67.9375 62.5 68.9375C63.2917 69.8958 63.6875 71.2083 63.6875 72.875C63.6875 75.125 63.125 77.0625 62 78.6875C60.875 80.3125 59.1875 81.5417 56.9375 82.375L56.0625 81.375C59.3958 79.75 61.0625 77.5625 61.0625 74.8125C61.0625 74.3542 60.9583 74.0833 60.75 74C60.5417 73.9167 60.3125 73.9167 60.0625 74L59.3125 74.25Z" fill="black"/>
</svg>
