<svg width="120" height="117" viewBox="0 0 120 117" fill="none" xmlns="http://www.w3.org/2000/svg">
<path d="M1 19C1 9.05887 9.05888 1 19 1H59.75H100.5C110.441 1 118.5 9.05888 118.5 19V58.5V98C118.5 107.941 110.441 116 100.5 116H19C9.05887 116 1 107.941 1 98V19Z" stroke="black" stroke-width="2"/>
<path d="M66.4375 31.0625V33.375H58.3125C57.7292 33.375 57.25 33.4167 56.875 33.5C56.5417 33.5417 56.2917 33.6667 56.125 33.875C55.9583 34.0417 55.8542 34.2917 55.8125 34.625C55.7708 34.9583 55.75 35.375 55.75 35.875V82.5C55.75 83.625 55.875 84.375 56.125 84.75C56.4167 85.125 57.2292 85.3125 58.5625 85.3125H66.4375V87.75H51.875V31.0625H66.4375Z" fill="black"/>
</svg>
