<svg width="120" height="117" viewBox="0 0 120 117" fill="none" xmlns="http://www.w3.org/2000/svg">
<path d="M1 19C1 9.05887 9.05888 1 19 1H59.75H100.5C110.441 1 118.5 9.05888 118.5 19V58.5V98C118.5 107.941 110.441 116 100.5 116H19C9.05887 116 1 107.941 1 98V19Z" stroke="black" stroke-width="2"/>
<path d="M64.4375 89.75H49.875V87.3125H57.75C59.0833 87.3125 59.875 87.125 60.125 86.75C60.4167 86.375 60.5625 85.625 60.5625 84.5V37.875C60.5625 36.8333 60.4167 36.1667 60.125 35.875C59.875 35.5417 59.1667 35.375 58 35.375H49.875V33.0625H64.4375V89.75Z" fill="black"/>
</svg>
