<svg width="120" height="117" viewBox="0 0 120 117" fill="none" xmlns="http://www.w3.org/2000/svg">
<path d="M1 19C1 9.05887 9.05888 1 19 1H59.75H100.5C110.441 1 118.5 9.05888 118.5 19V58.5V98C118.5 107.941 110.441 116 100.5 116H19C9.05887 116 1 107.941 1 98V19Z" stroke="black" stroke-width="2"/>
<path d="M59.1875 32.625L64 44.6875C64.0833 44.9792 64.0417 45.2292 63.875 45.4375C63.7083 45.6458 63.5208 45.75 63.3125 45.75C63.1042 45.75 62.9375 45.6458 62.8125 45.4375L54.6875 35.25C54.2708 34.7083 54.0833 34.0625 54.125 33.3125C54.2083 32.5208 54.6458 31.9167 55.4375 31.5C55.8542 31.2083 56.3125 31.0625 56.8125 31.0625C57.3542 31.0625 57.8333 31.2083 58.25 31.5C58.6667 31.7917 58.9792 32.1667 59.1875 32.625Z" fill="black"/>
</svg>
