<svg width="120" height="117" viewBox="0 0 120 117" fill="none" xmlns="http://www.w3.org/2000/svg">
<path d="M1 19C1 9.05887 9.05888 1 19 1H59.75H100.5C110.441 1 118.5 9.05888 118.5 19V58.5V98C118.5 107.941 110.441 116 100.5 116H19C9.05887 116 1 107.941 1 98V19Z" stroke="black" stroke-width="2"/>
<path d="M46.8125 73.3125C45.9792 75.6042 45.7917 77.2917 46.25 78.375C46.7083 79.4167 48.3333 79.9375 51.125 79.9375V81.5C49.0417 81.4583 46.75 81.4375 44.25 81.4375C41.75 81.4375 39.5 81.4583 37.5 81.5V79.8125C38.625 79.8125 39.5417 79.7083 40.25 79.5C40.9583 79.2917 41.5625 78.9167 42.0625 78.375C42.5625 77.875 43 77.2083 43.375 76.375C43.75 75.5 44.1667 74.4167 44.625 73.125L58.75 32.9375H60L73.6875 73.25C74.1042 74.5417 74.5417 75.6042 75 76.4375C75.4583 77.2708 75.9583 77.9167 76.5 78.375C77.0833 78.875 77.7292 79.25 78.4375 79.5C79.1875 79.7083 80.0625 79.8542 81.0625 79.9375V81.5C80.0208 81.5 78.8333 81.5 77.5 81.5C76.2083 81.4583 74.875 81.4375 73.5 81.4375C72.0833 81.4375 70.7083 81.4583 69.375 81.5C68.0833 81.5 66.9375 81.5 65.9375 81.5V79.9375C67.2708 79.9375 68.3125 79.8542 69.0625 79.6875C69.8125 79.5208 70.3125 79.1875 70.5625 78.6875C70.8125 78.1875 70.8333 77.5 70.625 76.625C70.4583 75.75 70.1667 74.6042 69.75 73.1875L66.5625 63.9375H50.0625L46.8125 73.3125ZM65.875 61.8125L58.5 39.75L50.875 61.8125H65.875Z" fill="black"/>
</svg>
