<svg width="183" height="117" viewBox="0 0 183 117" fill="none" xmlns="http://www.w3.org/2000/svg">
<path d="M1 98V19C1 9.05887 9.05888 1 19 1H91.5H164C173.941 1 182 9.05888 182 19V58.5V98C182 107.941 173.941 116 164 116H19C9.05888 116 1 107.941 1 98Z" stroke="black" stroke-width="2"/>
<path d="M59.8125 76.3125C58.9792 78.6042 58.7917 80.2917 59.25 81.375C59.7083 82.4167 61.3333 82.9375 64.125 82.9375V84.5C62.0417 84.4583 59.75 84.4375 57.25 84.4375C54.75 84.4375 52.5 84.4583 50.5 84.5V82.8125C51.625 82.8125 52.5417 82.7083 53.25 82.5C53.9583 82.2917 54.5625 81.9167 55.0625 81.375C55.5625 80.875 56 80.2083 56.375 79.375C56.75 78.5 57.1667 77.4167 57.625 76.125L71.75 35.9375H73L86.6875 76.25C87.1042 77.5417 87.5417 78.6042 88 79.4375C88.4583 80.2708 88.9583 80.9167 89.5 81.375C90.0833 81.875 90.7292 82.25 91.4375 82.5C92.1875 82.7083 93.0625 82.8542 94.0625 82.9375V84.5C93.0208 84.5 91.8333 84.5 90.5 84.5C89.2083 84.4583 87.875 84.4375 86.5 84.4375C85.0833 84.4375 83.7083 84.4583 82.375 84.5C81.0833 84.5 79.9375 84.5 78.9375 84.5V82.9375C80.2708 82.9375 81.3125 82.8542 82.0625 82.6875C82.8125 82.5208 83.3125 82.1875 83.5625 81.6875C83.8125 81.1875 83.8333 80.5 83.625 79.625C83.4583 78.75 83.1667 77.6042 82.75 76.1875L79.5625 66.9375H63.0625L59.8125 76.3125ZM78.875 64.8125L71.5 42.75L63.875 64.8125H78.875ZM102.25 43.25C102.25 42.1667 102.188 41.3125 102.062 40.6875C101.979 40.0208 101.771 39.5 101.438 39.125C101.146 38.7917 100.708 38.5833 100.125 38.5C99.5833 38.4167 98.875 38.375 98 38.375V37.125C99.3333 36.875 100.625 36.5 101.875 36C103.167 35.4583 104.292 34.75 105.25 33.875H106.375C106.25 35 106.167 36.2083 106.125 37.5C106.083 38.75 106.062 39.875 106.062 40.875V78.125C106.062 79.875 106.354 81.125 106.938 81.875C107.521 82.5833 108.729 82.9375 110.562 82.9375V84.5C109.646 84.5 108.604 84.5 107.438 84.5C106.312 84.4583 105.188 84.4375 104.062 84.4375C102.896 84.4375 101.75 84.4375 100.625 84.4375C99.5417 84.4375 98.5833 84.4583 97.75 84.5V82.9375C99.625 82.9375 100.833 82.625 101.375 82C101.958 81.3333 102.25 80.0417 102.25 78.125V43.25ZM122.375 76.3125C122.375 78.7292 122.729 80.375 123.438 81.25C124.146 82.125 125.104 82.5625 126.312 82.5625C126.688 82.5625 127.146 82.5 127.688 82.375C128.271 82.25 128.833 82.0833 129.375 81.875C129.958 81.6667 130.479 81.4583 130.938 81.25C131.396 81.0417 131.75 80.8333 132 80.625L132.562 81.5C131.354 82.75 130.083 83.75 128.75 84.5C127.417 85.2083 125.958 85.5625 124.375 85.5625C122.542 85.5625 121.104 85.0417 120.062 84C119.021 82.9583 118.5 81.4375 118.5 79.4375V58.5H114.125V57.3125C116.208 56.7292 117.771 55.7083 118.812 54.25C119.854 52.7917 120.604 50.75 121.062 48.125H122.375V55.75H132.375V58.5H122.375V76.3125Z" fill="black"/>
</svg>
