<svg width="120" height="117" viewBox="0 0 120 117" fill="none" xmlns="http://www.w3.org/2000/svg">
<path d="M1 19C1 9.05887 9.05888 1 19 1H59.75H100.5C110.441 1 118.5 9.05888 118.5 19V58.5V98C118.5 107.941 110.441 116 100.5 116H19C9.05887 116 1 107.941 1 98V19Z" stroke="black" stroke-width="2"/>
<path d="M52.9375 75.125C52.9375 76.375 53.0208 77.375 53.1875 78.125C53.3542 78.8333 53.7083 79.375 54.25 79.75C54.7917 80.125 55.5208 80.3542 56.4375 80.4375C57.3958 80.5208 58.6667 80.5625 60.25 80.5625C63.875 80.5625 66.75 79.75 68.875 78.125C71.0417 76.5 72.125 74.0208 72.125 70.6875C72.125 66.6458 70.8333 63.7083 68.25 61.875C65.6667 60 62.3125 59.0625 58.1875 59.0625H52.9375V75.125ZM52.9375 57H56.6875C59.9792 57 62.7083 56.25 64.875 54.75C67.0833 53.25 68.1875 50.5833 68.1875 46.75C68.1875 43.25 67.1458 40.8958 65.0625 39.6875C62.9792 38.4375 60.2708 37.8125 56.9375 37.8125C56.5208 37.8125 55.875 37.8333 55 37.875C54.125 37.9167 53.4375 37.9375 52.9375 37.9375V57ZM42.6875 81C43.9375 81 44.9583 80.9375 45.75 80.8125C46.5417 80.6458 47.1458 80.3542 47.5625 79.9375C48.0208 79.4792 48.3333 78.875 48.5 78.125C48.6667 77.3333 48.75 76.3125 48.75 75.0625V42.9375C48.75 40.8125 48.3542 39.375 47.5625 38.625C46.8125 37.875 45.1875 37.4792 42.6875 37.4375V35.875C43.6875 35.9167 44.8542 35.9583 46.1875 36C47.5208 36 48.875 36 50.25 36C51.625 36 52.9792 36 54.3125 36C55.6458 35.9583 56.8333 35.9167 57.875 35.875C59.5833 35.875 61.2917 36.0625 63 36.4375C64.7083 36.7708 66.25 37.375 67.625 38.25C69 39.0833 70.125 40.2083 71 41.625C71.875 43 72.3125 44.7083 72.3125 46.75C72.3125 48.375 72.0208 49.7917 71.4375 51C70.8542 52.1667 70.0833 53.1667 69.125 54C68.1667 54.875 67.0625 55.6042 65.8125 56.1875C64.5625 56.7292 63.2917 57.1667 62 57.5C63.9167 57.5417 65.75 57.8542 67.5 58.4375C69.2917 59.0208 70.8542 59.8542 72.1875 60.9375C73.5625 61.9792 74.6458 63.2708 75.4375 64.8125C76.2292 66.3542 76.625 68.0833 76.625 70C76.625 73.6667 75.1667 76.6667 72.25 79C69.3333 81.3333 65.1458 82.5 59.6875 82.5C58.4792 82.5 57.1458 82.5 55.6875 82.5C54.2292 82.4583 52.7292 82.4375 51.1875 82.4375C49.6458 82.4375 48.125 82.4583 46.625 82.5C45.1667 82.5 43.8542 82.5 42.6875 82.5V81Z" fill="black"/>
</svg>
