<svg width="120" height="117" viewBox="0 0 120 117" fill="none" xmlns="http://www.w3.org/2000/svg">
<path d="M1 19C1 9.05887 9.05888 1 19 1H59.75H100.5C110.441 1 118.5 9.05888 118.5 19V58.5V98C118.5 107.941 110.441 116 100.5 116H19C9.05887 116 1 107.941 1 98V19Z" stroke="black" stroke-width="2"/>
<path d="M76.6875 48.8125H75.5625C74.9375 45.0625 73.5208 42.2917 71.3125 40.5C69.1458 38.6667 66 37.75 61.875 37.75C58.9583 37.75 56.25 38.2917 53.75 39.375C51.2917 40.4167 49.1667 41.8958 47.375 43.8125C45.5833 45.7292 44.1875 48 43.1875 50.625C42.1875 53.25 41.6875 56.1458 41.6875 59.3125C41.6875 62.8125 42.2292 66 43.3125 68.875C44.4375 71.7083 45.9583 74.1458 47.875 76.1875C49.7917 78.2292 52.0417 79.8125 54.625 80.9375C57.2083 82.0208 59.9792 82.5625 62.9375 82.5625C66.6875 82.5625 69.5417 81.4792 71.5 79.3125C73.4583 77.1042 74.75 74.375 75.375 71.125H76.8125L75.1875 81.4375C74.6042 81.8125 73.75 82.1875 72.625 82.5625C71.5417 82.9375 70.3542 83.2708 69.0625 83.5625C67.7292 83.8542 66.3958 84.0833 65.0625 84.25C63.7708 84.4583 62.625 84.5625 61.625 84.5625C58 84.5625 54.6875 83.9792 51.6875 82.8125C48.7292 81.6458 46.1667 79.9583 44 77.75C41.8333 75.5833 40.1458 72.9583 38.9375 69.875C37.7708 66.7917 37.1875 63.3333 37.1875 59.5C37.1875 56.0417 37.8542 52.875 39.1875 50C40.5625 47.0833 42.3958 44.5625 44.6875 42.4375C46.9375 40.3542 49.5208 38.7292 52.4375 37.5625C55.3542 36.3958 58.3542 35.8125 61.4375 35.8125C63.9375 35.8125 66.4167 36.125 68.875 36.75C71.375 37.375 73.7708 38.1458 76.0625 39.0625L76.6875 48.8125Z" fill="black"/>
</svg>
