<svg width="127" height="117" viewBox="0 0 127 117" fill="none" xmlns="http://www.w3.org/2000/svg">
<path d="M1 98V19C1 9.05887 9.05887 1 19 1H63.5H108C117.941 1 126 9.05888 126 19V58.5V98C126 107.941 117.941 116 108 116H19C9.05887 116 1 107.941 1 98Z" stroke="black" stroke-width="2"/>
<path d="M50.056 82C47.0693 82 44.68 81.1253 42.888 79.376C41.1387 77.6267 40.264 75.28 40.264 72.336C40.264 69.2213 41.1813 66.8107 43.016 65.104C44.8933 63.3547 47.6453 62.48 51.272 62.48H55.048V55.44H51.272C47.6453 55.44 44.8933 54.5867 43.016 52.88C41.1813 51.1307 40.264 48.6987 40.264 45.584C40.264 42.64 41.1387 40.2933 42.888 38.544C44.68 36.7947 47.0693 35.92 50.056 35.92C52.4453 35.92 54.3227 36.368 55.688 37.264C57.096 38.16 58.0773 39.3547 58.632 40.848C59.2293 42.3413 59.528 43.984 59.528 45.776V51.088H66.568V45.776C66.568 43.984 66.8453 42.3413 67.4 40.848C67.9973 39.3547 68.9787 38.16 70.344 37.264C71.752 36.368 73.6507 35.92 76.04 35.92C79.0267 35.92 81.3947 36.7947 83.144 38.544C84.936 40.2933 85.832 42.64 85.832 45.584C85.832 48.6987 84.9147 51.1307 83.08 52.88C81.2453 54.5867 78.4933 55.44 74.824 55.44H71.048V62.48H74.824C78.4933 62.48 81.2453 63.3547 83.08 65.104C84.9147 66.8107 85.832 69.2213 85.832 72.336C85.832 75.28 84.936 77.6267 83.144 79.376C81.3947 81.1253 79.0267 82 76.04 82C73.6507 82 71.752 81.552 70.344 80.656C68.9787 79.76 67.9973 78.5653 67.4 77.072C66.8453 75.5787 66.568 73.936 66.568 72.144V66.832H59.528V72.144C59.528 73.936 59.2293 75.5787 58.632 77.072C58.0773 78.5653 57.096 79.76 55.688 80.656C54.3227 81.552 52.4453 82 50.056 82ZM71.048 45.648V51.088H74.824C77.0853 51.088 78.728 50.64 79.752 49.744C80.776 48.8053 81.288 47.4187 81.288 45.584C81.288 43.7067 80.776 42.3627 79.752 41.552C78.7707 40.7413 77.5333 40.336 76.04 40.336C74.376 40.336 73.1173 40.8267 72.264 41.808C71.4533 42.7467 71.048 44.0267 71.048 45.648ZM51.272 51.088H55.048V45.648C55.048 44.0267 54.6213 42.7467 53.768 41.808C52.9573 40.8267 51.72 40.336 50.056 40.336C48.5627 40.336 47.304 40.7413 46.28 41.552C45.2987 42.3627 44.808 43.7067 44.808 45.584C44.808 47.4187 45.32 48.8053 46.344 49.744C47.368 50.64 49.0107 51.088 51.272 51.088ZM59.528 62.48H66.568V55.44H59.528V62.48ZM50.056 77.584C51.72 77.584 52.9573 77.1147 53.768 76.176C54.6213 75.1947 55.048 73.8933 55.048 72.272V66.832H51.272C49.0107 66.832 47.368 67.3013 46.344 68.24C45.32 69.136 44.808 70.5013 44.808 72.336C44.808 74.2133 45.2987 75.5573 46.28 76.368C47.304 77.1787 48.5627 77.584 50.056 77.584ZM71.048 72.272C71.048 73.8933 71.4533 75.1947 72.264 76.176C73.1173 77.1147 74.376 77.584 76.04 77.584C77.5333 77.584 78.7707 77.1787 79.752 76.368C80.776 75.5573 81.288 74.2133 81.288 72.336C81.288 70.5013 80.776 69.136 79.752 68.24C78.728 67.3013 77.0853 66.832 74.824 66.832H71.048V72.272Z" fill="black"/>
</svg>
