<svg width="183" height="117" viewBox="0 0 183 117" fill="none" xmlns="http://www.w3.org/2000/svg">
<path d="M1 98V19C1 9.05887 9.05888 1 19 1H91.5H164C173.941 1 182 9.05888 182 19V58.5V98C182 107.941 173.941 116 164 116H19C9.05888 116 1 107.941 1 98Z" stroke="black" stroke-width="2"/>
<path d="M76.6875 45.8125H75.5625C74.9375 42.0625 73.5208 39.2917 71.3125 37.5C69.1458 35.6667 66 34.75 61.875 34.75C58.9583 34.75 56.25 35.2917 53.75 36.375C51.2917 37.4167 49.1667 38.8958 47.375 40.8125C45.5833 42.7292 44.1875 45 43.1875 47.625C42.1875 50.25 41.6875 53.1458 41.6875 56.3125C41.6875 59.8125 42.2292 63 43.3125 65.875C44.4375 68.7083 45.9583 71.1458 47.875 73.1875C49.7917 75.2292 52.0417 76.8125 54.625 77.9375C57.2083 79.0208 59.9792 79.5625 62.9375 79.5625C66.6875 79.5625 69.5417 78.4792 71.5 76.3125C73.4583 74.1042 74.75 71.375 75.375 68.125H76.8125L75.1875 78.4375C74.6042 78.8125 73.75 79.1875 72.625 79.5625C71.5417 79.9375 70.3542 80.2708 69.0625 80.5625C67.7292 80.8542 66.3958 81.0833 65.0625 81.25C63.7708 81.4583 62.625 81.5625 61.625 81.5625C58 81.5625 54.6875 80.9792 51.6875 79.8125C48.7292 78.6458 46.1667 76.9583 44 74.75C41.8333 72.5833 40.1458 69.9583 38.9375 66.875C37.7708 63.7917 37.1875 60.3333 37.1875 56.5C37.1875 53.0417 37.8542 49.875 39.1875 47C40.5625 44.0833 42.3958 41.5625 44.6875 39.4375C46.9375 37.3542 49.5208 35.7292 52.4375 34.5625C55.3542 33.3958 58.3542 32.8125 61.4375 32.8125C63.9375 32.8125 66.4167 33.125 68.875 33.75C71.375 34.375 73.7708 35.1458 76.0625 36.0625L76.6875 45.8125ZM89.1875 72.3125C89.1875 74.7292 89.5417 76.375 90.25 77.25C90.9583 78.125 91.9167 78.5625 93.125 78.5625C93.5 78.5625 93.9583 78.5 94.5 78.375C95.0833 78.25 95.6458 78.0833 96.1875 77.875C96.7708 77.6667 97.2917 77.4583 97.75 77.25C98.2083 77.0417 98.5625 76.8333 98.8125 76.625L99.375 77.5C98.1667 78.75 96.8958 79.75 95.5625 80.5C94.2292 81.2083 92.7708 81.5625 91.1875 81.5625C89.3542 81.5625 87.9167 81.0417 86.875 80C85.8333 78.9583 85.3125 77.4375 85.3125 75.4375V54.5H80.9375V53.3125C83.0208 52.7292 84.5833 51.7083 85.625 50.25C86.6667 48.7917 87.4167 46.75 87.875 44.125H89.1875V51.75H99.1875V54.5H89.1875V72.3125ZM111.125 56.875C111.75 56.0417 112.458 55.2292 113.25 54.4375C114.042 53.6042 114.833 52.8542 115.625 52.1875C116.458 51.5625 117.271 51.0625 118.062 50.6875C118.854 50.2708 119.604 50.0625 120.312 50.0625C121.312 50.0625 122.188 50.3333 122.938 50.875C123.688 51.375 124.062 52.0833 124.062 53C124.062 54 123.75 54.7708 123.125 55.3125C122.542 55.8125 121.979 56.0625 121.438 56.0625C120.938 56.0625 120.542 56 120.25 55.875C119.958 55.7083 119.667 55.5208 119.375 55.3125C119.083 55.1042 118.75 54.9167 118.375 54.75C118.042 54.5833 117.583 54.5 117 54.5C116.625 54.5 116.104 54.6875 115.438 55.0625C114.771 55.4375 114.125 55.9167 113.5 56.5C112.833 57.0833 112.271 57.7708 111.812 58.5625C111.354 59.3125 111.125 60.0833 111.125 60.875V74.125C111.125 75.125 111.188 75.9583 111.312 76.625C111.479 77.25 111.812 77.7292 112.312 78.0625C112.812 78.3958 113.521 78.625 114.438 78.75C115.354 78.875 116.583 78.9375 118.125 78.9375V80.5C117.167 80.4583 115.979 80.4375 114.562 80.4375C113.146 80.3958 111.688 80.375 110.188 80.375C108.688 80.375 107.229 80.3958 105.812 80.4375C104.396 80.4375 103.208 80.4583 102.25 80.5V78.9375C104.375 78.9375 105.75 78.6667 106.375 78.125C107 77.5833 107.312 76.25 107.312 74.125V59.4375C107.312 58.3125 107.271 57.4167 107.188 56.75C107.104 56.0833 106.938 55.5625 106.688 55.1875C106.438 54.8125 106.062 54.5625 105.562 54.4375C105.062 54.3125 104.375 54.25 103.5 54.25V52.9375C104.833 52.7292 106.042 52.4167 107.125 52C108.25 51.5833 109.292 50.9375 110.25 50.0625H111.375C111.25 51.1875 111.167 52.3542 111.125 53.5625C111.125 54.7708 111.125 55.875 111.125 56.875ZM132 39.25C132 38.1667 131.938 37.3125 131.812 36.6875C131.729 36.0208 131.521 35.5 131.188 35.125C130.896 34.7917 130.458 34.5833 129.875 34.5C129.333 34.4167 128.625 34.375 127.75 34.375V33.125C129.083 32.875 130.375 32.5 131.625 32C132.917 31.4583 134.042 30.75 135 29.875H136.125C136 31 135.917 32.2083 135.875 33.5C135.833 34.75 135.812 35.875 135.812 36.875V74.125C135.812 75.875 136.104 77.125 136.688 77.875C137.271 78.5833 138.479 78.9375 140.312 78.9375V80.5C139.396 80.5 138.354 80.5 137.188 80.5C136.062 80.4583 134.938 80.4375 133.812 80.4375C132.646 80.4375 131.5 80.4375 130.375 80.4375C129.292 80.4375 128.333 80.4583 127.5 80.5V78.9375C129.375 78.9375 130.583 78.625 131.125 78C131.708 77.3333 132 76.0417 132 74.125V39.25Z" fill="black"/>
</svg>
