<svg width="120" height="117" viewBox="0 0 120 117" fill="none" xmlns="http://www.w3.org/2000/svg">
<path d="M1 19C1 9.05887 9.05888 1 19 1H59.75H100.5C110.441 1 118.5 9.05888 118.5 19V58.5V98C118.5 107.941 110.441 116 100.5 116H19C9.05887 116 1 107.941 1 98V19Z" stroke="black" stroke-width="2"/>
<path d="M46.375 44.25C46.375 43.0833 46.2917 42.125 46.125 41.375C45.9583 40.625 45.6667 40.0417 45.25 39.625C44.7917 39.1667 44.1458 38.8542 43.3125 38.6875C42.5208 38.5208 41.4792 38.4375 40.1875 38.4375V36.875C42.8125 36.9167 45.75 36.9375 49 36.9375C52.2917 36.9375 55.4375 36.9167 58.4375 36.875C62.4792 36.875 66.0833 37.5208 69.25 38.8125C72.4583 40.1042 75.1458 41.8333 77.3125 44C79.5208 46.1667 81.1875 48.6458 82.3125 51.4375C83.4792 54.2292 84.0625 57.125 84.0625 60.125C84.0625 63.0833 83.5208 65.9792 82.4375 68.8125C81.3542 71.6042 79.7292 74.0833 77.5625 76.25C75.3542 78.4583 72.6042 80.2292 69.3125 81.5625C66.0208 82.8542 62.1458 83.5 57.6875 83.5C56.4375 83.5 55.0625 83.5 53.5625 83.5C52.0625 83.4583 50.5208 83.4375 48.9375 83.4375C47.3542 83.4375 45.7917 83.4583 44.25 83.5C42.75 83.5 41.3958 83.5 40.1875 83.5V81.8125C41.4792 81.8125 42.5208 81.75 43.3125 81.625C44.1458 81.4583 44.7917 81.1458 45.25 80.6875C45.6667 80.2292 45.9583 79.6042 46.125 78.8125C46.2917 77.9792 46.375 76.9167 46.375 75.625V44.25ZM50.5625 75.6875C50.5625 76.9792 50.6667 78.0208 50.875 78.8125C51.0833 79.5625 51.4792 80.1458 52.0625 80.5625C52.6458 80.9792 53.4792 81.25 54.5625 81.375C55.6458 81.5 57.0417 81.5625 58.75 81.5625C62.375 81.5625 65.5 80.9792 68.125 79.8125C70.75 78.6458 72.8958 77.0833 74.5625 75.125C76.2708 73.1667 77.5208 70.875 78.3125 68.25C79.1042 65.625 79.5 62.875 79.5 60C79.5 56.7083 78.9792 53.7708 77.9375 51.1875C76.8958 48.5625 75.4167 46.3333 73.5 44.5C71.5417 42.7083 69.1667 41.3333 66.375 40.375C63.625 39.375 60.5 38.875 57 38.875C56.25 38.875 55.5417 38.8958 54.875 38.9375C54.25 38.9375 53.6667 38.9583 53.125 39C52.5417 39.0417 52.0417 39.0833 51.625 39.125C51.2083 39.125 50.8542 39.125 50.5625 39.125V75.6875Z" fill="black"/>
</svg>
