<svg width="120" height="117" viewBox="0 0 120 117" fill="none" xmlns="http://www.w3.org/2000/svg">
<path d="M1 19C1 9.05887 9.05888 1 19 1H59.75H100.5C110.441 1 118.5 9.05888 118.5 19V58.5V98C118.5 107.941 110.441 116 100.5 116H19C9.05887 116 1 107.941 1 98V19Z" stroke="black" stroke-width="2"/>
<path d="M52.9375 60H62.375C64.2083 60 65.4792 59.6042 66.1875 58.8125C66.9375 58.0208 67.3125 56.5 67.3125 54.25H68.8125V69.0625H67.3125C67.3125 67.7292 67.2292 66.6458 67.0625 65.8125C66.9375 64.9792 66.6875 64.3333 66.3125 63.875C65.9375 63.375 65.4167 63.0417 64.75 62.875C64.125 62.7083 63.3125 62.625 62.3125 62.625H52.9375V77.375C52.9375 78.7083 53.0208 79.7917 53.1875 80.625C53.3958 81.4167 53.8125 82.0208 54.4375 82.4375C55.0208 82.8958 55.8333 83.2083 56.875 83.375C57.9583 83.5 59.3542 83.5625 61.0625 83.5625H65.375C67.125 83.5625 68.5833 83.4375 69.75 83.1875C70.9167 82.9375 71.8958 82.5 72.6875 81.875C73.4792 81.25 74.1458 80.4167 74.6875 79.375C75.2292 78.2917 75.7708 76.9375 76.3125 75.3125H77.9375C77.6458 76.1458 77.3542 77 77.0625 77.875C76.8125 78.7083 76.5625 79.5417 76.3125 80.375C76.0625 81.25 75.8333 82.125 75.625 83C75.4167 83.8333 75.2292 84.6667 75.0625 85.5C69.6042 85.4167 64.0833 85.375 58.5 85.375C52.9167 85.375 47.5625 85.4167 42.4375 85.5V83.9375C45.0625 83.9375 46.7708 83.5 47.5625 82.625C48.3542 81.75 48.75 80 48.75 77.375V46.4375C48.75 45.1458 48.6458 44.1042 48.4375 43.3125C48.2708 42.5208 47.9375 41.9167 47.4375 41.5C46.9792 41.125 46.3333 40.875 45.5 40.75C44.7083 40.5833 43.6875 40.5 42.4375 40.5V38.875C47.4375 39 52.5833 39.0625 57.875 39.0625C63.1667 39.0625 68.1667 39 72.875 38.875V48.875H71.5625C71.3958 47.1667 71.1458 45.7917 70.8125 44.75C70.5208 43.6667 70.0208 42.8333 69.3125 42.25C68.6458 41.7083 67.7292 41.3333 66.5625 41.125C65.3958 40.9167 63.875 40.8125 62 40.8125H52.9375V60Z" fill="black"/>
</svg>
