<svg width="120" height="117" viewBox="0 0 120 117" fill="none" xmlns="http://www.w3.org/2000/svg">
<path d="M1 19C1 9.05887 9.05888 1 19 1H59.75H100.5C110.441 1 118.5 9.05888 118.5 19V58.5V98C118.5 107.941 110.441 116 100.5 116H19C9.05887 116 1 107.941 1 98V19Z" stroke="black" stroke-width="2"/>
<path d="M54.9375 74.25C54.9375 75.75 55 76.9375 55.125 77.8125C55.2917 78.6875 55.5833 79.3542 56 79.8125C56.4583 80.2708 57.0833 80.5833 57.875 80.75C58.6667 80.875 59.7292 80.9375 61.0625 80.9375V82.5C60.1875 82.5 58.9792 82.5 57.4375 82.5C55.9375 82.4583 54.375 82.4375 52.75 82.4375C51.0833 82.4375 49.4792 82.4583 47.9375 82.5C46.4375 82.5 45.2708 82.5 44.4375 82.5V80.9375C45.8125 80.9375 46.9167 80.875 47.75 80.75C48.5833 80.5833 49.2292 80.25 49.6875 79.75C50.1042 79.2917 50.375 78.625 50.5 77.75C50.6667 76.875 50.75 75.7083 50.75 74.25V43.4375C50.75 42.1458 50.6458 41.125 50.4375 40.375C50.2708 39.5833 49.9583 39 49.5 38.625C49.0417 38.2083 48.3958 37.9375 47.5625 37.8125C46.7708 37.6458 45.7292 37.5417 44.4375 37.5V35.8125C49.4375 35.9375 54.5 36 59.625 36C64.75 36 69.8125 35.9375 74.8125 35.8125L75.1875 45.25L73.5625 45.1875C73.3542 43.7708 73.1042 42.5833 72.8125 41.625C72.5625 40.6667 72.1042 39.9167 71.4375 39.375C70.8125 38.7917 69.9167 38.3958 68.75 38.1875C67.5833 37.9375 66.0208 37.8125 64.0625 37.8125H54.9375V57H64.0625C66.0625 57 67.4375 56.6667 68.1875 56C68.9792 55.3333 69.4375 53.8125 69.5625 51.4375H71.3125C71.2292 52.2708 71.1667 53.3125 71.125 54.5625C71.125 55.7708 71.125 57.0625 71.125 58.4375C71.125 59.8125 71.125 61.1458 71.125 62.4375C71.1667 63.7292 71.2292 64.8333 71.3125 65.75H69.75C69.625 63.4583 69.1875 61.875 68.4375 61C67.7292 60.0833 66.3125 59.625 64.1875 59.625H54.9375V74.25Z" fill="black"/>
</svg>
