<svg width="160" height="117" viewBox="0 0 160 117" fill="none" xmlns="http://www.w3.org/2000/svg">
<path d="M1 98V19C1 9.05887 9.05887 1 19 1H80H141C150.941 1 159 9.05888 159 19V58.5V98C159 107.941 150.941 116 141 116H19C9.05887 116 1 107.941 1 98Z" stroke="black" stroke-width="2"/>
<path d="M57.9375 75.25C57.9375 76.75 58 77.9375 58.125 78.8125C58.2917 79.6875 58.5833 80.3542 59 80.8125C59.4583 81.2708 60.0833 81.5833 60.875 81.75C61.6667 81.875 62.7292 81.9375 64.0625 81.9375V83.5C63.1875 83.5 61.9792 83.5 60.4375 83.5C58.9375 83.4583 57.375 83.4375 55.75 83.4375C54.0833 83.4375 52.4792 83.4583 50.9375 83.5C49.4375 83.5 48.2708 83.5 47.4375 83.5V81.9375C48.8125 81.9375 49.9167 81.875 50.75 81.75C51.5833 81.5833 52.2292 81.25 52.6875 80.75C53.1042 80.2917 53.375 79.625 53.5 78.75C53.6667 77.875 53.75 76.7083 53.75 75.25V44.4375C53.75 43.1458 53.6458 42.125 53.4375 41.375C53.2708 40.5833 52.9583 40 52.5 39.625C52.0417 39.2083 51.3958 38.9375 50.5625 38.8125C49.7708 38.6458 48.7292 38.5417 47.4375 38.5V36.8125C52.4375 36.9375 57.5 37 62.625 37C67.75 37 72.8125 36.9375 77.8125 36.8125L78.1875 46.25L76.5625 46.1875C76.3542 44.7708 76.1042 43.5833 75.8125 42.625C75.5625 41.6667 75.1042 40.9167 74.4375 40.375C73.8125 39.7917 72.9167 39.3958 71.75 39.1875C70.5833 38.9375 69.0208 38.8125 67.0625 38.8125H57.9375V58H67.0625C69.0625 58 70.4375 57.6667 71.1875 57C71.9792 56.3333 72.4375 54.8125 72.5625 52.4375H74.3125C74.2292 53.2708 74.1667 54.3125 74.125 55.5625C74.125 56.7708 74.125 58.0625 74.125 59.4375C74.125 60.8125 74.125 62.1458 74.125 63.4375C74.1667 64.7292 74.2292 65.8333 74.3125 66.75H72.75C72.625 64.4583 72.1875 62.875 71.4375 62C70.7292 61.0833 69.3125 60.625 67.1875 60.625H57.9375V75.25ZM93.6875 84.3125C92.6875 84.3125 91.6042 84.2292 90.4375 84.0625C89.2708 83.8958 88.2083 83.6667 87.25 83.375C86.2917 83.0417 85.4792 82.6458 84.8125 82.1875C84.1875 81.6875 83.875 81.1042 83.875 80.4375C83.875 79.7292 84.125 79.2083 84.625 78.875C85.125 78.5417 85.75 78.375 86.5 78.375C87.2917 78.375 88.0208 78.5208 88.6875 78.8125C89.3542 79.0625 90.0833 79.375 90.875 79.75C91.4583 80.0833 92.25 80.4792 93.25 80.9375C94.25 81.3958 95.2917 81.6042 96.375 81.5625C97.7083 81.5208 98.9583 81.1875 100.125 80.5625C101.292 79.8958 102.292 79 103.125 77.875C104 76.7083 104.688 75.3542 105.188 73.8125C105.688 72.2292 105.938 70.5208 105.938 68.6875C105.938 63.8958 104.438 60.25 101.438 57.75C98.4375 55.2083 93.9167 54.0833 87.875 54.375C87.375 54.4167 86.9792 54.3333 86.6875 54.125C86.3958 53.9167 86.3125 53.6875 86.4375 53.4375L93.25 36.6875H110.062L109.312 40.1875H94.625L90.625 50.5625C93.6667 50.4375 96.3958 50.75 98.8125 51.5C101.271 52.2083 103.333 53.2708 105 54.6875C106.667 56.0625 107.938 57.7708 108.812 59.8125C109.729 61.8542 110.188 64.125 110.188 66.625C110.188 69.0417 109.771 71.3333 108.938 73.5C108.104 75.625 106.938 77.5 105.438 79.125C103.979 80.7083 102.229 81.9792 100.188 82.9375C98.1875 83.8542 96.0208 84.3125 93.6875 84.3125Z" fill="black"/>
</svg>
