<svg width="160" height="117" viewBox="0 0 160 117" fill="none" xmlns="http://www.w3.org/2000/svg">
<path d="M1 98V19C1 9.05887 9.05887 1 19 1H80H141C150.941 1 159 9.05888 159 19V58.5V98C159 107.941 150.941 116 141 116H19C9.05887 116 1 107.941 1 98Z" stroke="black" stroke-width="2"/>
<path d="M39.9375 75.25C39.9375 76.75 40 77.9375 40.125 78.8125C40.2917 79.6875 40.5833 80.3542 41 80.8125C41.4583 81.2708 42.0833 81.5833 42.875 81.75C43.6667 81.875 44.7292 81.9375 46.0625 81.9375V83.5C45.1875 83.5 43.9792 83.5 42.4375 83.5C40.9375 83.4583 39.375 83.4375 37.75 83.4375C36.0833 83.4375 34.4792 83.4583 32.9375 83.5C31.4375 83.5 30.2708 83.5 29.4375 83.5V81.9375C30.8125 81.9375 31.9167 81.875 32.75 81.75C33.5833 81.5833 34.2292 81.25 34.6875 80.75C35.1042 80.2917 35.375 79.625 35.5 78.75C35.6667 77.875 35.75 76.7083 35.75 75.25V44.4375C35.75 43.1458 35.6458 42.125 35.4375 41.375C35.2708 40.5833 34.9583 40 34.5 39.625C34.0417 39.2083 33.3958 38.9375 32.5625 38.8125C31.7708 38.6458 30.7292 38.5417 29.4375 38.5V36.8125C34.4375 36.9375 39.5 37 44.625 37C49.75 37 54.8125 36.9375 59.8125 36.8125L60.1875 46.25L58.5625 46.1875C58.3542 44.7708 58.1042 43.5833 57.8125 42.625C57.5625 41.6667 57.1042 40.9167 56.4375 40.375C55.8125 39.7917 54.9167 39.3958 53.75 39.1875C52.5833 38.9375 51.0208 38.8125 49.0625 38.8125H39.9375V58H49.0625C51.0625 58 52.4375 57.6667 53.1875 57C53.9792 56.3333 54.4375 54.8125 54.5625 52.4375H56.3125C56.2292 53.2708 56.1667 54.3125 56.125 55.5625C56.125 56.7708 56.125 58.0625 56.125 59.4375C56.125 60.8125 56.125 62.1458 56.125 63.4375C56.1667 64.7292 56.2292 65.8333 56.3125 66.75H54.75C54.625 64.4583 54.1875 62.875 53.4375 62C52.7292 61.0833 51.3125 60.625 49.1875 60.625H39.9375V75.25ZM82.75 35.625V76.625C82.75 77.8333 82.8958 78.7917 83.1875 79.5C83.4792 80.1667 83.9167 80.6667 84.5 81C85.0833 81.3333 85.8125 81.5417 86.6875 81.625C87.5625 81.7083 88.5625 81.7708 89.6875 81.8125V83.5625H71.75V81.75C72.75 81.7083 73.6667 81.6667 74.5 81.625C75.3333 81.5417 76.0625 81.3333 76.6875 81C77.3125 80.6667 77.7917 80.1667 78.125 79.5C78.5 78.7917 78.6875 77.7917 78.6875 76.5V45.8125C78.6875 44.6875 78.5833 43.8125 78.375 43.1875C78.2083 42.5625 77.8542 42.1875 77.3125 42.0625C76.7708 41.8958 76 41.9583 75 42.25C74.0417 42.5417 72.7917 43.0208 71.25 43.6875V41.75L82.75 35.625ZM99.8125 60.4375C99.8125 57.2708 100.083 54.2292 100.625 51.3125C101.208 48.3542 102.083 45.75 103.25 43.5C104.417 41.25 105.896 39.4583 107.688 38.125C109.521 36.75 111.667 36.0625 114.125 36.0625C116.583 36.0625 118.708 36.7292 120.5 38.0625C122.333 39.3958 123.833 41.1875 125 43.4375C126.167 45.6875 127.021 48.2917 127.562 51.25C128.146 54.1667 128.438 57.2083 128.438 60.375C128.438 63.5833 128.146 66.6458 127.562 69.5625C126.979 72.4792 126.083 75.0625 124.875 77.3125C123.708 79.5208 122.229 81.2917 120.438 82.625C118.646 83.9583 116.542 84.625 114.125 84.625C111.667 84.625 109.521 83.9583 107.688 82.625C105.896 81.2917 104.417 79.5208 103.25 77.3125C102.083 75.1042 101.208 72.5417 100.625 69.625C100.083 66.7083 99.8125 63.6458 99.8125 60.4375ZM114.125 82.4375C115.792 82.4375 117.229 81.9167 118.438 80.875C119.688 79.7917 120.708 78.2917 121.5 76.375C122.333 74.4167 122.958 72.0833 123.375 69.375C123.792 66.6667 124 63.6875 124 60.4375C124 57.1875 123.792 54.2083 123.375 51.5C122.958 48.75 122.333 46.3958 121.5 44.4375C120.708 42.4375 119.688 40.875 118.438 39.75C117.229 38.625 115.792 38.0625 114.125 38.0625C112.5 38.0625 111.062 38.625 109.812 39.75C108.604 40.8333 107.583 42.375 106.75 44.375C105.917 46.3333 105.292 48.6875 104.875 51.4375C104.458 54.1458 104.25 57.125 104.25 60.375C104.25 63.625 104.458 66.6042 104.875 69.3125C105.333 72.0208 105.979 74.3542 106.812 76.3125C107.646 78.2292 108.667 79.7292 109.875 80.8125C111.125 81.8958 112.542 82.4375 114.125 82.4375Z" fill="black"/>
</svg>
