<svg width="160" height="117" viewBox="0 0 160 117" fill="none" xmlns="http://www.w3.org/2000/svg">
<path d="M1 98V19C1 9.05887 9.05887 1 19 1H80H141C150.941 1 159 9.05888 159 19V58.5V98C159 107.941 150.941 116 141 116H19C9.05887 116 1 107.941 1 98Z" stroke="black" stroke-width="2"/>
<path d="M46.9375 76.25C46.9375 77.75 47 78.9375 47.125 79.8125C47.2917 80.6875 47.5833 81.3542 48 81.8125C48.4583 82.2708 49.0833 82.5833 49.875 82.75C50.6667 82.875 51.7292 82.9375 53.0625 82.9375V84.5C52.1875 84.5 50.9792 84.5 49.4375 84.5C47.9375 84.4583 46.375 84.4375 44.75 84.4375C43.0833 84.4375 41.4792 84.4583 39.9375 84.5C38.4375 84.5 37.2708 84.5 36.4375 84.5V82.9375C37.8125 82.9375 38.9167 82.875 39.75 82.75C40.5833 82.5833 41.2292 82.25 41.6875 81.75C42.1042 81.2917 42.375 80.625 42.5 79.75C42.6667 78.875 42.75 77.7083 42.75 76.25V45.4375C42.75 44.1458 42.6458 43.125 42.4375 42.375C42.2708 41.5833 41.9583 41 41.5 40.625C41.0417 40.2083 40.3958 39.9375 39.5625 39.8125C38.7708 39.6458 37.7292 39.5417 36.4375 39.5V37.8125C41.4375 37.9375 46.5 38 51.625 38C56.75 38 61.8125 37.9375 66.8125 37.8125L67.1875 47.25L65.5625 47.1875C65.3542 45.7708 65.1042 44.5833 64.8125 43.625C64.5625 42.6667 64.1042 41.9167 63.4375 41.375C62.8125 40.7917 61.9167 40.3958 60.75 40.1875C59.5833 39.9375 58.0208 39.8125 56.0625 39.8125H46.9375V59H56.0625C58.0625 59 59.4375 58.6667 60.1875 58C60.9792 57.3333 61.4375 55.8125 61.5625 53.4375H63.3125C63.2292 54.2708 63.1667 55.3125 63.125 56.5625C63.125 57.7708 63.125 59.0625 63.125 60.4375C63.125 61.8125 63.125 63.1458 63.125 64.4375C63.1667 65.7292 63.2292 66.8333 63.3125 67.75H61.75C61.625 65.4583 61.1875 63.875 60.4375 63C59.7292 62.0833 58.3125 61.625 56.1875 61.625H46.9375V76.25ZM89.75 36.625V77.625C89.75 78.8333 89.8958 79.7917 90.1875 80.5C90.4792 81.1667 90.9167 81.6667 91.5 82C92.0833 82.3333 92.8125 82.5417 93.6875 82.625C94.5625 82.7083 95.5625 82.7708 96.6875 82.8125V84.5625H78.75V82.75C79.75 82.7083 80.6667 82.6667 81.5 82.625C82.3333 82.5417 83.0625 82.3333 83.6875 82C84.3125 81.6667 84.7917 81.1667 85.125 80.5C85.5 79.7917 85.6875 78.7917 85.6875 77.5V46.8125C85.6875 45.6875 85.5833 44.8125 85.375 44.1875C85.2083 43.5625 84.8542 43.1875 84.3125 43.0625C83.7708 42.8958 83 42.9583 82 43.25C81.0417 43.5417 79.7917 44.0208 78.25 44.6875V42.75L89.75 36.625ZM124.125 36.625V77.625C124.125 78.8333 124.271 79.7917 124.562 80.5C124.854 81.1667 125.292 81.6667 125.875 82C126.458 82.3333 127.188 82.5417 128.062 82.625C128.938 82.7083 129.938 82.7708 131.062 82.8125V84.5625H113.125V82.75C114.125 82.7083 115.042 82.6667 115.875 82.625C116.708 82.5417 117.438 82.3333 118.062 82C118.688 81.6667 119.167 81.1667 119.5 80.5C119.875 79.7917 120.062 78.7917 120.062 77.5V46.8125C120.062 45.6875 119.958 44.8125 119.75 44.1875C119.583 43.5625 119.229 43.1875 118.688 43.0625C118.146 42.8958 117.375 42.9583 116.375 43.25C115.417 43.5417 114.167 44.0208 112.625 44.6875V42.75L124.125 36.625Z" fill="black"/>
</svg>
