<svg width="160" height="117" viewBox="0 0 160 117" fill="none" xmlns="http://www.w3.org/2000/svg">
<path d="M1 98V19C1 9.05887 9.05887 1 19 1H80H141C150.941 1 159 9.05888 159 19V58.5V98C159 107.941 150.941 116 141 116H19C9.05887 116 1 107.941 1 98Z" stroke="black" stroke-width="2"/>
<path d="M39.9375 74.25C39.9375 75.75 40 76.9375 40.125 77.8125C40.2917 78.6875 40.5833 79.3542 41 79.8125C41.4583 80.2708 42.0833 80.5833 42.875 80.75C43.6667 80.875 44.7292 80.9375 46.0625 80.9375V82.5C45.1875 82.5 43.9792 82.5 42.4375 82.5C40.9375 82.4583 39.375 82.4375 37.75 82.4375C36.0833 82.4375 34.4792 82.4583 32.9375 82.5C31.4375 82.5 30.2708 82.5 29.4375 82.5V80.9375C30.8125 80.9375 31.9167 80.875 32.75 80.75C33.5833 80.5833 34.2292 80.25 34.6875 79.75C35.1042 79.2917 35.375 78.625 35.5 77.75C35.6667 76.875 35.75 75.7083 35.75 74.25V43.4375C35.75 42.1458 35.6458 41.125 35.4375 40.375C35.2708 39.5833 34.9583 39 34.5 38.625C34.0417 38.2083 33.3958 37.9375 32.5625 37.8125C31.7708 37.6458 30.7292 37.5417 29.4375 37.5V35.8125C34.4375 35.9375 39.5 36 44.625 36C49.75 36 54.8125 35.9375 59.8125 35.8125L60.1875 45.25L58.5625 45.1875C58.3542 43.7708 58.1042 42.5833 57.8125 41.625C57.5625 40.6667 57.1042 39.9167 56.4375 39.375C55.8125 38.7917 54.9167 38.3958 53.75 38.1875C52.5833 37.9375 51.0208 37.8125 49.0625 37.8125H39.9375V57H49.0625C51.0625 57 52.4375 56.6667 53.1875 56C53.9792 55.3333 54.4375 53.8125 54.5625 51.4375H56.3125C56.2292 52.2708 56.1667 53.3125 56.125 54.5625C56.125 55.7708 56.125 57.0625 56.125 58.4375C56.125 59.8125 56.125 61.1458 56.125 62.4375C56.1667 63.7292 56.2292 64.8333 56.3125 65.75H54.75C54.625 63.4583 54.1875 61.875 53.4375 61C52.7292 60.0833 51.3125 59.625 49.1875 59.625H39.9375V74.25ZM82.75 34.625V75.625C82.75 76.8333 82.8958 77.7917 83.1875 78.5C83.4792 79.1667 83.9167 79.6667 84.5 80C85.0833 80.3333 85.8125 80.5417 86.6875 80.625C87.5625 80.7083 88.5625 80.7708 89.6875 80.8125V82.5625H71.75V80.75C72.75 80.7083 73.6667 80.6667 74.5 80.625C75.3333 80.5417 76.0625 80.3333 76.6875 80C77.3125 79.6667 77.7917 79.1667 78.125 78.5C78.5 77.7917 78.6875 76.7917 78.6875 75.5V44.8125C78.6875 43.6875 78.5833 42.8125 78.375 42.1875C78.2083 41.5625 77.8542 41.1875 77.3125 41.0625C76.7708 40.8958 76 40.9583 75 41.25C74.0417 41.5417 72.7917 42.0208 71.25 42.6875V40.75L82.75 34.625ZM100.562 81C101.938 79.5417 103.396 77.9167 104.938 76.125C106.521 74.2917 108.042 72.4792 109.5 70.6875C111 68.8542 112.375 67.1458 113.625 65.5625C114.875 63.9792 115.875 62.6875 116.625 61.6875C117.333 60.7708 118.042 59.75 118.75 58.625C119.5 57.5 120.167 56.3333 120.75 55.125C121.375 53.9167 121.875 52.7083 122.25 51.5C122.667 50.25 122.875 49.0417 122.875 47.875C122.875 46.8333 122.708 45.7292 122.375 44.5625C122.042 43.3958 121.5 42.3333 120.75 41.375C120 40.4167 119 39.625 117.75 39C116.542 38.375 115.042 38.0625 113.25 38.0625C111.917 38.0625 110.688 38.3542 109.562 38.9375C108.479 39.4792 107.479 40.2292 106.562 41.1875C105.688 42.1458 104.896 43.25 104.188 44.5C103.521 45.75 102.979 47.0625 102.562 48.4375L100.688 48.1875C101.021 46.5208 101.542 44.8958 102.25 43.3125C102.958 41.7292 103.875 40.3333 105 39.125C106.167 37.875 107.521 36.8958 109.062 36.1875C110.646 35.4375 112.438 35.0625 114.438 35.0625C116.188 35.0625 117.812 35.375 119.312 36C120.854 36.625 122.167 37.5 123.25 38.625C124.333 39.75 125.188 41.0833 125.812 42.625C126.438 44.125 126.75 45.7708 126.75 47.5625C126.75 48.8958 126.542 50.25 126.125 51.625C125.75 53 125.25 54.3333 124.625 55.625C124.042 56.9167 123.375 58.1458 122.625 59.3125C121.875 60.4792 121.146 61.5208 120.438 62.4375C118.229 65.3958 116.042 68.2083 113.875 70.875C111.708 73.5 109.354 76.3125 106.812 79.3125H120.188C121.312 79.3125 122.229 79.2708 122.938 79.1875C123.646 79.1042 124.25 78.9167 124.75 78.625C125.25 78.3333 125.708 77.8958 126.125 77.3125C126.542 76.6875 127.042 75.875 127.625 74.875H129.125L126.25 82.5625H100.562V81Z" fill="black"/>
</svg>
