<svg width="160" height="117" viewBox="0 0 160 117" fill="none" xmlns="http://www.w3.org/2000/svg">
<path d="M1 98V19C1 9.05887 9.05887 1 19 1H80H141C150.941 1 159 9.05888 159 19V58.5V98C159 107.941 150.941 116 141 116H19C9.05887 116 1 107.941 1 98Z" stroke="black" stroke-width="2"/>
<path d="M57.9375 76.25C57.9375 77.75 58 78.9375 58.125 79.8125C58.2917 80.6875 58.5833 81.3542 59 81.8125C59.4583 82.2708 60.0833 82.5833 60.875 82.75C61.6667 82.875 62.7292 82.9375 64.0625 82.9375V84.5C63.1875 84.5 61.9792 84.5 60.4375 84.5C58.9375 84.4583 57.375 84.4375 55.75 84.4375C54.0833 84.4375 52.4792 84.4583 50.9375 84.5C49.4375 84.5 48.2708 84.5 47.4375 84.5V82.9375C48.8125 82.9375 49.9167 82.875 50.75 82.75C51.5833 82.5833 52.2292 82.25 52.6875 81.75C53.1042 81.2917 53.375 80.625 53.5 79.75C53.6667 78.875 53.75 77.7083 53.75 76.25V45.4375C53.75 44.1458 53.6458 43.125 53.4375 42.375C53.2708 41.5833 52.9583 41 52.5 40.625C52.0417 40.2083 51.3958 39.9375 50.5625 39.8125C49.7708 39.6458 48.7292 39.5417 47.4375 39.5V37.8125C52.4375 37.9375 57.5 38 62.625 38C67.75 38 72.8125 37.9375 77.8125 37.8125L78.1875 47.25L76.5625 47.1875C76.3542 45.7708 76.1042 44.5833 75.8125 43.625C75.5625 42.6667 75.1042 41.9167 74.4375 41.375C73.8125 40.7917 72.9167 40.3958 71.75 40.1875C70.5833 39.9375 69.0208 39.8125 67.0625 39.8125H57.9375V59H67.0625C69.0625 59 70.4375 58.6667 71.1875 58C71.9792 57.3333 72.4375 55.8125 72.5625 53.4375H74.3125C74.2292 54.2708 74.1667 55.3125 74.125 56.5625C74.125 57.7708 74.125 59.0625 74.125 60.4375C74.125 61.8125 74.125 63.1458 74.125 64.4375C74.1667 65.7292 74.2292 66.8333 74.3125 67.75H72.75C72.625 65.4583 72.1875 63.875 71.4375 63C70.7292 62.0833 69.3125 61.625 67.1875 61.625H57.9375V76.25ZM84.1875 83C85.5625 81.5417 87.0208 79.9167 88.5625 78.125C90.1458 76.2917 91.6667 74.4792 93.125 72.6875C94.625 70.8542 96 69.1458 97.25 67.5625C98.5 65.9792 99.5 64.6875 100.25 63.6875C100.958 62.7708 101.667 61.75 102.375 60.625C103.125 59.5 103.792 58.3333 104.375 57.125C105 55.9167 105.5 54.7083 105.875 53.5C106.292 52.25 106.5 51.0417 106.5 49.875C106.5 48.8333 106.333 47.7292 106 46.5625C105.667 45.3958 105.125 44.3333 104.375 43.375C103.625 42.4167 102.625 41.625 101.375 41C100.167 40.375 98.6667 40.0625 96.875 40.0625C95.5417 40.0625 94.3125 40.3542 93.1875 40.9375C92.1042 41.4792 91.1042 42.2292 90.1875 43.1875C89.3125 44.1458 88.5208 45.25 87.8125 46.5C87.1458 47.75 86.6042 49.0625 86.1875 50.4375L84.3125 50.1875C84.6458 48.5208 85.1667 46.8958 85.875 45.3125C86.5833 43.7292 87.5 42.3333 88.625 41.125C89.7917 39.875 91.1458 38.8958 92.6875 38.1875C94.2708 37.4375 96.0625 37.0625 98.0625 37.0625C99.8125 37.0625 101.438 37.375 102.938 38C104.479 38.625 105.792 39.5 106.875 40.625C107.958 41.75 108.812 43.0833 109.438 44.625C110.062 46.125 110.375 47.7708 110.375 49.5625C110.375 50.8958 110.167 52.25 109.75 53.625C109.375 55 108.875 56.3333 108.25 57.625C107.667 58.9167 107 60.1458 106.25 61.3125C105.5 62.4792 104.771 63.5208 104.062 64.4375C101.854 67.3958 99.6667 70.2083 97.5 72.875C95.3333 75.5 92.9792 78.3125 90.4375 81.3125H103.812C104.938 81.3125 105.854 81.2708 106.562 81.1875C107.271 81.1042 107.875 80.9167 108.375 80.625C108.875 80.3333 109.333 79.8958 109.75 79.3125C110.167 78.6875 110.667 77.875 111.25 76.875H112.75L109.875 84.5625H84.1875V83Z" fill="black"/>
</svg>
