<svg width="160" height="117" viewBox="0 0 160 117" fill="none" xmlns="http://www.w3.org/2000/svg">
<path d="M1 98V19C1 9.05887 9.05887 1 19 1H80H141C150.941 1 159 9.05888 159 19V58.5V98C159 107.941 150.941 116 141 116H19C9.05887 116 1 107.941 1 98Z" stroke="black" stroke-width="2"/>
<path d="M57.9375 75.25C57.9375 76.75 58 77.9375 58.125 78.8125C58.2917 79.6875 58.5833 80.3542 59 80.8125C59.4583 81.2708 60.0833 81.5833 60.875 81.75C61.6667 81.875 62.7292 81.9375 64.0625 81.9375V83.5C63.1875 83.5 61.9792 83.5 60.4375 83.5C58.9375 83.4583 57.375 83.4375 55.75 83.4375C54.0833 83.4375 52.4792 83.4583 50.9375 83.5C49.4375 83.5 48.2708 83.5 47.4375 83.5V81.9375C48.8125 81.9375 49.9167 81.875 50.75 81.75C51.5833 81.5833 52.2292 81.25 52.6875 80.75C53.1042 80.2917 53.375 79.625 53.5 78.75C53.6667 77.875 53.75 76.7083 53.75 75.25V44.4375C53.75 43.1458 53.6458 42.125 53.4375 41.375C53.2708 40.5833 52.9583 40 52.5 39.625C52.0417 39.2083 51.3958 38.9375 50.5625 38.8125C49.7708 38.6458 48.7292 38.5417 47.4375 38.5V36.8125C52.4375 36.9375 57.5 37 62.625 37C67.75 37 72.8125 36.9375 77.8125 36.8125L78.1875 46.25L76.5625 46.1875C76.3542 44.7708 76.1042 43.5833 75.8125 42.625C75.5625 41.6667 75.1042 40.9167 74.4375 40.375C73.8125 39.7917 72.9167 39.3958 71.75 39.1875C70.5833 38.9375 69.0208 38.8125 67.0625 38.8125H57.9375V58H67.0625C69.0625 58 70.4375 57.6667 71.1875 57C71.9792 56.3333 72.4375 54.8125 72.5625 52.4375H74.3125C74.2292 53.2708 74.1667 54.3125 74.125 55.5625C74.125 56.7708 74.125 58.0625 74.125 59.4375C74.125 60.8125 74.125 62.1458 74.125 63.4375C74.1667 64.7292 74.2292 65.8333 74.3125 66.75H72.75C72.625 64.4583 72.1875 62.875 71.4375 62C70.7292 61.0833 69.3125 60.625 67.1875 60.625H57.9375V75.25ZM108.75 45.5C108.75 46.625 108.542 47.7292 108.125 48.8125C107.708 49.8958 107.146 50.9375 106.438 51.9375C105.729 52.9375 104.896 53.875 103.938 54.75C103.021 55.625 102.021 56.4167 100.938 57.125C102.312 57.375 103.604 57.8333 104.812 58.5C106.021 59.1667 107.083 60.0208 108 61.0625C108.917 62.1042 109.646 63.2917 110.188 64.625C110.729 65.9583 111 67.4167 111 69C111 71.25 110.667 73.2292 110 74.9375C109.333 76.6042 108.396 78.0417 107.188 79.25C106.021 80.4583 104.604 81.4792 102.938 82.3125C101.312 83.1042 99.5 83.7083 97.5 84.125C96 84.4583 94.5208 84.5833 93.0625 84.5C91.6042 84.4167 90.2917 84.2083 89.125 83.875C88 83.5 87.0833 83.0417 86.375 82.5C85.6667 81.9167 85.3125 81.3125 85.3125 80.6875C85.3125 80.1042 85.5 79.5833 85.875 79.125C86.2917 78.6667 86.8542 78.4375 87.5625 78.4375C88.3958 78.4375 89.1875 78.6042 89.9375 78.9375C90.7292 79.2708 91.5 79.6875 92.25 80.1875C93.2917 80.8958 94.1667 81.3542 94.875 81.5625C95.625 81.7292 96.4167 81.7917 97.25 81.75C98.4167 81.7083 99.5833 81.4375 100.75 80.9375C101.917 80.3958 102.958 79.6875 103.875 78.8125C104.792 77.8958 105.542 76.8333 106.125 75.625C106.708 74.375 107.021 73 107.062 71.5C107.146 67.1667 105.979 64.0417 103.562 62.125C101.146 60.2083 97.4792 59.5208 92.5625 60.0625L92.625 58.3125C94.375 57.9375 95.9583 57.3542 97.375 56.5625C98.8333 55.7708 100.062 54.8542 101.062 53.8125C102.104 52.7292 102.917 51.5625 103.5 50.3125C104.083 49.0208 104.375 47.7083 104.375 46.375C104.375 44 103.729 42.1667 102.438 40.875C101.146 39.5833 99.375 38.9375 97.125 38.9375C95.9167 38.9375 94.7917 39.1667 93.75 39.625C92.7083 40.0417 91.7708 40.6042 90.9375 41.3125C90.1042 42.0208 89.375 42.8542 88.75 43.8125C88.1667 44.7292 87.6875 45.7083 87.3125 46.75L85.4375 46.6875C85.8125 45.1458 86.3958 43.7292 87.1875 42.4375C87.9792 41.1042 88.9375 39.9583 90.0625 39C91.1875 38.0417 92.4583 37.2917 93.875 36.75C95.2917 36.2083 96.8333 35.9375 98.5 35.9375C99.875 35.9375 101.167 36.1667 102.375 36.625C103.625 37.0833 104.708 37.7292 105.625 38.5625C106.583 39.3958 107.333 40.4167 107.875 41.625C108.458 42.7917 108.75 44.0833 108.75 45.5Z" fill="black"/>
</svg>
