<svg width="160" height="117" viewBox="0 0 160 117" fill="none" xmlns="http://www.w3.org/2000/svg">
<path d="M1 98V19C1 9.05887 9.05887 1 19 1H80H141C150.941 1 159 9.05888 159 19V58.5V98C159 107.941 150.941 116 141 116H19C9.05887 116 1 107.941 1 98Z" stroke="black" stroke-width="2"/>
<path d="M57.9375 75.25C57.9375 76.75 58 77.9375 58.125 78.8125C58.2917 79.6875 58.5833 80.3542 59 80.8125C59.4583 81.2708 60.0833 81.5833 60.875 81.75C61.6667 81.875 62.7292 81.9375 64.0625 81.9375V83.5C63.1875 83.5 61.9792 83.5 60.4375 83.5C58.9375 83.4583 57.375 83.4375 55.75 83.4375C54.0833 83.4375 52.4792 83.4583 50.9375 83.5C49.4375 83.5 48.2708 83.5 47.4375 83.5V81.9375C48.8125 81.9375 49.9167 81.875 50.75 81.75C51.5833 81.5833 52.2292 81.25 52.6875 80.75C53.1042 80.2917 53.375 79.625 53.5 78.75C53.6667 77.875 53.75 76.7083 53.75 75.25V44.4375C53.75 43.1458 53.6458 42.125 53.4375 41.375C53.2708 40.5833 52.9583 40 52.5 39.625C52.0417 39.2083 51.3958 38.9375 50.5625 38.8125C49.7708 38.6458 48.7292 38.5417 47.4375 38.5V36.8125C52.4375 36.9375 57.5 37 62.625 37C67.75 37 72.8125 36.9375 77.8125 36.8125L78.1875 46.25L76.5625 46.1875C76.3542 44.7708 76.1042 43.5833 75.8125 42.625C75.5625 41.6667 75.1042 40.9167 74.4375 40.375C73.8125 39.7917 72.9167 39.3958 71.75 39.1875C70.5833 38.9375 69.0208 38.8125 67.0625 38.8125H57.9375V58H67.0625C69.0625 58 70.4375 57.6667 71.1875 57C71.9792 56.3333 72.4375 54.8125 72.5625 52.4375H74.3125C74.2292 53.2708 74.1667 54.3125 74.125 55.5625C74.125 56.7708 74.125 58.0625 74.125 59.4375C74.125 60.8125 74.125 62.1458 74.125 63.4375C74.1667 64.7292 74.2292 65.8333 74.3125 66.75H72.75C72.625 64.4583 72.1875 62.875 71.4375 62C70.7292 61.0833 69.3125 60.625 67.1875 60.625H57.9375V75.25ZM106.125 35.6875V68.125H113.5V71.125H106.125V83.5625H102.188V71.125H83.0625V68.3125L103.75 35.6875H106.125ZM86.125 68.125H102.125V43.125L86.125 68.125Z" fill="black"/>
</svg>
