<svg width="160" height="117" viewBox="0 0 160 117" fill="none" xmlns="http://www.w3.org/2000/svg">
<path d="M1 98V19C1 9.05887 9.05887 1 19 1H80H141C150.941 1 159 9.05888 159 19V58.5V98C159 107.941 150.941 116 141 116H19C9.05887 116 1 107.941 1 98Z" stroke="black" stroke-width="2"/>
<path d="M57.9375 74.25C57.9375 75.75 58 76.9375 58.125 77.8125C58.2917 78.6875 58.5833 79.3542 59 79.8125C59.4583 80.2708 60.0833 80.5833 60.875 80.75C61.6667 80.875 62.7292 80.9375 64.0625 80.9375V82.5C63.1875 82.5 61.9792 82.5 60.4375 82.5C58.9375 82.4583 57.375 82.4375 55.75 82.4375C54.0833 82.4375 52.4792 82.4583 50.9375 82.5C49.4375 82.5 48.2708 82.5 47.4375 82.5V80.9375C48.8125 80.9375 49.9167 80.875 50.75 80.75C51.5833 80.5833 52.2292 80.25 52.6875 79.75C53.1042 79.2917 53.375 78.625 53.5 77.75C53.6667 76.875 53.75 75.7083 53.75 74.25V43.4375C53.75 42.1458 53.6458 41.125 53.4375 40.375C53.2708 39.5833 52.9583 39 52.5 38.625C52.0417 38.2083 51.3958 37.9375 50.5625 37.8125C49.7708 37.6458 48.7292 37.5417 47.4375 37.5V35.8125C52.4375 35.9375 57.5 36 62.625 36C67.75 36 72.8125 35.9375 77.8125 35.8125L78.1875 45.25L76.5625 45.1875C76.3542 43.7708 76.1042 42.5833 75.8125 41.625C75.5625 40.6667 75.1042 39.9167 74.4375 39.375C73.8125 38.7917 72.9167 38.3958 71.75 38.1875C70.5833 37.9375 69.0208 37.8125 67.0625 37.8125H57.9375V57H67.0625C69.0625 57 70.4375 56.6667 71.1875 56C71.9792 55.3333 72.4375 53.8125 72.5625 51.4375H74.3125C74.2292 52.2708 74.1667 53.3125 74.125 54.5625C74.125 55.7708 74.125 57.0625 74.125 58.4375C74.125 59.8125 74.125 61.1458 74.125 62.4375C74.1667 63.7292 74.2292 64.8333 74.3125 65.75H72.75C72.625 63.4583 72.1875 61.875 71.4375 61C70.7292 60.0833 69.3125 59.625 67.1875 59.625H57.9375V74.25ZM93.6875 83.3125C92.6875 83.3125 91.6042 83.2292 90.4375 83.0625C89.2708 82.8958 88.2083 82.6667 87.25 82.375C86.2917 82.0417 85.4792 81.6458 84.8125 81.1875C84.1875 80.6875 83.875 80.1042 83.875 79.4375C83.875 78.7292 84.125 78.2083 84.625 77.875C85.125 77.5417 85.75 77.375 86.5 77.375C87.2917 77.375 88.0208 77.5208 88.6875 77.8125C89.3542 78.0625 90.0833 78.375 90.875 78.75C91.4583 79.0833 92.25 79.4792 93.25 79.9375C94.25 80.3958 95.2917 80.6042 96.375 80.5625C97.7083 80.5208 98.9583 80.1875 100.125 79.5625C101.292 78.8958 102.292 78 103.125 76.875C104 75.7083 104.688 74.3542 105.188 72.8125C105.688 71.2292 105.938 69.5208 105.938 67.6875C105.938 62.8958 104.438 59.25 101.438 56.75C98.4375 54.2083 93.9167 53.0833 87.875 53.375C87.375 53.4167 86.9792 53.3333 86.6875 53.125C86.3958 52.9167 86.3125 52.6875 86.4375 52.4375L93.25 35.6875H110.062L109.312 39.1875H94.625L90.625 49.5625C93.6667 49.4375 96.3958 49.75 98.8125 50.5C101.271 51.2083 103.333 52.2708 105 53.6875C106.667 55.0625 107.938 56.7708 108.812 58.8125C109.729 60.8542 110.188 63.125 110.188 65.625C110.188 68.0417 109.771 70.3333 108.938 72.5C108.104 74.625 106.938 76.5 105.438 78.125C103.979 79.7083 102.229 80.9792 100.188 81.9375C98.1875 82.8542 96.0208 83.3125 93.6875 83.3125Z" fill="black"/>
</svg>
