<svg width="160" height="117" viewBox="0 0 160 117" fill="none" xmlns="http://www.w3.org/2000/svg">
<path d="M1 98V19C1 9.05887 9.05887 1 19 1H80H141C150.941 1 159 9.05888 159 19V58.5V98C159 107.941 150.941 116 141 116H19C9.05887 116 1 107.941 1 98Z" stroke="black" stroke-width="2"/>
<path d="M54.9375 76.25C54.9375 77.75 55 78.9375 55.125 79.8125C55.2917 80.6875 55.5833 81.3542 56 81.8125C56.4583 82.2708 57.0833 82.5833 57.875 82.75C58.6667 82.875 59.7292 82.9375 61.0625 82.9375V84.5C60.1875 84.5 58.9792 84.5 57.4375 84.5C55.9375 84.4583 54.375 84.4375 52.75 84.4375C51.0833 84.4375 49.4792 84.4583 47.9375 84.5C46.4375 84.5 45.2708 84.5 44.4375 84.5V82.9375C45.8125 82.9375 46.9167 82.875 47.75 82.75C48.5833 82.5833 49.2292 82.25 49.6875 81.75C50.1042 81.2917 50.375 80.625 50.5 79.75C50.6667 78.875 50.75 77.7083 50.75 76.25V45.4375C50.75 44.1458 50.6458 43.125 50.4375 42.375C50.2708 41.5833 49.9583 41 49.5 40.625C49.0417 40.2083 48.3958 39.9375 47.5625 39.8125C46.7708 39.6458 45.7292 39.5417 44.4375 39.5V37.8125C49.4375 37.9375 54.5 38 59.625 38C64.75 38 69.8125 37.9375 74.8125 37.8125L75.1875 47.25L73.5625 47.1875C73.3542 45.7708 73.1042 44.5833 72.8125 43.625C72.5625 42.6667 72.1042 41.9167 71.4375 41.375C70.8125 40.7917 69.9167 40.3958 68.75 40.1875C67.5833 39.9375 66.0208 39.8125 64.0625 39.8125H54.9375V59H64.0625C66.0625 59 67.4375 58.6667 68.1875 58C68.9792 57.3333 69.4375 55.8125 69.5625 53.4375H71.3125C71.2292 54.2708 71.1667 55.3125 71.125 56.5625C71.125 57.7708 71.125 59.0625 71.125 60.4375C71.125 61.8125 71.125 63.1458 71.125 64.4375C71.1667 65.7292 71.2292 66.8333 71.3125 67.75H69.75C69.625 65.4583 69.1875 63.875 68.4375 63C67.7292 62.0833 66.3125 61.625 64.1875 61.625H54.9375V76.25ZM86.375 58.75C87.6667 57.4167 89 56.4375 90.375 55.8125C91.75 55.1875 93.1667 54.8125 94.625 54.6875C96.5417 54.5208 98.375 54.7917 100.125 55.5C101.875 56.1667 103.396 57.2083 104.688 58.625C105.979 60 107 61.6875 107.75 63.6875C108.542 65.6458 108.938 67.8125 108.938 70.1875C108.938 72.3958 108.625 74.4583 108 76.375C107.417 78.25 106.542 79.875 105.375 81.25C104.25 82.625 102.875 83.7083 101.25 84.5C99.625 85.25 97.7917 85.625 95.75 85.625C93.625 85.625 91.6667 85.1458 89.875 84.1875C88.0833 83.1875 86.5417 81.8125 85.25 80.0625C83.9583 78.2708 82.9583 76.1458 82.25 73.6875C81.5417 71.2292 81.1875 68.5417 81.1875 65.625C81.1875 61.7083 81.8333 58.0208 83.125 54.5625C84.4167 51.0625 86.2292 48.0208 88.5625 45.4375C90.9375 42.8542 93.75 40.8125 97 39.3125C100.292 37.7708 103.938 36.9792 107.938 36.9375L108 38.5625C105.292 38.7292 102.75 39.3333 100.375 40.375C98 41.4167 95.875 42.8125 94 44.5625C92.125 46.3125 90.5208 48.3958 89.1875 50.8125C87.8542 53.1875 86.9167 55.8333 86.375 58.75ZM85.75 67.3125C85.6667 69.3958 85.8125 71.4167 86.1875 73.375C86.6042 75.3333 87.2292 77.0625 88.0625 78.5625C88.9375 80.0625 90.0208 81.2708 91.3125 82.1875C92.6042 83.1042 94.1042 83.5625 95.8125 83.5625C97.4792 83.5625 98.875 83.1875 100 82.4375C101.125 81.6458 102.021 80.625 102.688 79.375C103.396 78.0833 103.875 76.6458 104.125 75.0625C104.417 73.4375 104.521 71.7917 104.438 70.125C104.354 68.375 104.042 66.6875 103.5 65.0625C102.958 63.4375 102.229 62.0208 101.312 60.8125C100.396 59.5625 99.2917 58.625 98 58C96.7083 57.3333 95.2917 57.1042 93.75 57.3125C91.5 57.6042 89.625 58.625 88.125 60.375C86.625 62.125 85.8333 64.4375 85.75 67.3125Z" fill="black"/>
</svg>
