<svg width="160" height="117" viewBox="0 0 160 117" fill="none" xmlns="http://www.w3.org/2000/svg">
<path d="M1 98V19C1 9.05887 9.05887 1 19 1H80H141C150.941 1 159 9.05888 159 19V58.5V98C159 107.941 150.941 116 141 116H19C9.05887 116 1 107.941 1 98Z" stroke="black" stroke-width="2"/>
<path d="M57.9375 73.25C57.9375 74.75 58 75.9375 58.125 76.8125C58.2917 77.6875 58.5833 78.3542 59 78.8125C59.4583 79.2708 60.0833 79.5833 60.875 79.75C61.6667 79.875 62.7292 79.9375 64.0625 79.9375V81.5C63.1875 81.5 61.9792 81.5 60.4375 81.5C58.9375 81.4583 57.375 81.4375 55.75 81.4375C54.0833 81.4375 52.4792 81.4583 50.9375 81.5C49.4375 81.5 48.2708 81.5 47.4375 81.5V79.9375C48.8125 79.9375 49.9167 79.875 50.75 79.75C51.5833 79.5833 52.2292 79.25 52.6875 78.75C53.1042 78.2917 53.375 77.625 53.5 76.75C53.6667 75.875 53.75 74.7083 53.75 73.25V42.4375C53.75 41.1458 53.6458 40.125 53.4375 39.375C53.2708 38.5833 52.9583 38 52.5 37.625C52.0417 37.2083 51.3958 36.9375 50.5625 36.8125C49.7708 36.6458 48.7292 36.5417 47.4375 36.5V34.8125C52.4375 34.9375 57.5 35 62.625 35C67.75 35 72.8125 34.9375 77.8125 34.8125L78.1875 44.25L76.5625 44.1875C76.3542 42.7708 76.1042 41.5833 75.8125 40.625C75.5625 39.6667 75.1042 38.9167 74.4375 38.375C73.8125 37.7917 72.9167 37.3958 71.75 37.1875C70.5833 36.9375 69.0208 36.8125 67.0625 36.8125H57.9375V56H67.0625C69.0625 56 70.4375 55.6667 71.1875 55C71.9792 54.3333 72.4375 52.8125 72.5625 50.4375H74.3125C74.2292 51.2708 74.1667 52.3125 74.125 53.5625C74.125 54.7708 74.125 56.0625 74.125 57.4375C74.125 58.8125 74.125 60.1458 74.125 61.4375C74.1667 62.7292 74.2292 63.8333 74.3125 64.75H72.75C72.625 62.4583 72.1875 60.875 71.4375 60C70.7292 59.0833 69.3125 58.625 67.1875 58.625H57.9375V73.25ZM112.125 35.375L97.6875 81.5H94.125L107.438 38.625H93.5625C92.4375 38.625 91.5 38.7292 90.75 38.9375C90.0417 39.1458 89.3958 39.4792 88.8125 39.9375C88.2708 40.3542 87.75 40.9167 87.25 41.625C86.75 42.2917 86.1667 43.1042 85.5 44.0625L83.75 43.6875L87.625 34.6875H111.875L112.125 35.375Z" fill="black"/>
</svg>
