<svg width="160" height="117" viewBox="0 0 160 117" fill="none" xmlns="http://www.w3.org/2000/svg">
<path d="M1 98V19C1 9.05887 9.05887 1 19 1H80H141C150.941 1 159 9.05888 159 19V58.5V98C159 107.941 150.941 116 141 116H19C9.05887 116 1 107.941 1 98Z" stroke="black" stroke-width="2"/>
<path d="M54.9375 75.25C54.9375 76.75 55 77.9375 55.125 78.8125C55.2917 79.6875 55.5833 80.3542 56 80.8125C56.4583 81.2708 57.0833 81.5833 57.875 81.75C58.6667 81.875 59.7292 81.9375 61.0625 81.9375V83.5C60.1875 83.5 58.9792 83.5 57.4375 83.5C55.9375 83.4583 54.375 83.4375 52.75 83.4375C51.0833 83.4375 49.4792 83.4583 47.9375 83.5C46.4375 83.5 45.2708 83.5 44.4375 83.5V81.9375C45.8125 81.9375 46.9167 81.875 47.75 81.75C48.5833 81.5833 49.2292 81.25 49.6875 80.75C50.1042 80.2917 50.375 79.625 50.5 78.75C50.6667 77.875 50.75 76.7083 50.75 75.25V44.4375C50.75 43.1458 50.6458 42.125 50.4375 41.375C50.2708 40.5833 49.9583 40 49.5 39.625C49.0417 39.2083 48.3958 38.9375 47.5625 38.8125C46.7708 38.6458 45.7292 38.5417 44.4375 38.5V36.8125C49.4375 36.9375 54.5 37 59.625 37C64.75 37 69.8125 36.9375 74.8125 36.8125L75.1875 46.25L73.5625 46.1875C73.3542 44.7708 73.1042 43.5833 72.8125 42.625C72.5625 41.6667 72.1042 40.9167 71.4375 40.375C70.8125 39.7917 69.9167 39.3958 68.75 39.1875C67.5833 38.9375 66.0208 38.8125 64.0625 38.8125H54.9375V58H64.0625C66.0625 58 67.4375 57.6667 68.1875 57C68.9792 56.3333 69.4375 54.8125 69.5625 52.4375H71.3125C71.2292 53.2708 71.1667 54.3125 71.125 55.5625C71.125 56.7708 71.125 58.0625 71.125 59.4375C71.125 60.8125 71.125 62.1458 71.125 63.4375C71.1667 64.7292 71.2292 65.8333 71.3125 66.75H69.75C69.625 64.4583 69.1875 62.875 68.4375 62C67.7292 61.0833 66.3125 60.625 64.1875 60.625H54.9375V75.25ZM107.25 47C107.25 48.4583 107.021 49.8125 106.562 51.0625C106.146 52.2708 105.583 53.375 104.875 54.375C104.167 55.375 103.312 56.2708 102.312 57.0625C101.354 57.8542 100.354 58.5208 99.3125 59.0625C102.312 60.2708 104.646 61.8125 106.312 63.6875C107.979 65.5625 108.812 68 108.812 71C108.812 73.0833 108.438 74.9583 107.688 76.625C106.979 78.2917 105.979 79.7292 104.688 80.9375C103.396 82.1042 101.875 83 100.125 83.625C98.375 84.25 96.4792 84.5625 94.4375 84.5625C92.6458 84.5625 90.9167 84.2708 89.25 83.6875C87.625 83.1042 86.1875 82.2917 84.9375 81.25C83.6875 80.2083 82.6875 78.9583 81.9375 77.5C81.1875 76 80.8125 74.375 80.8125 72.625C80.8125 71 81.0625 69.4792 81.5625 68.0625C82.1042 66.6458 82.8125 65.375 83.6875 64.25C84.6042 63.0833 85.6458 62.1042 86.8125 61.3125C87.9792 60.4792 89.2292 59.8542 90.5625 59.4375C88.1042 58.2292 86.1042 56.6875 84.5625 54.8125C83.0625 52.9375 82.3125 50.5208 82.3125 47.5625C82.3125 45.8125 82.625 44.2292 83.25 42.8125C83.9167 41.3958 84.8125 40.1875 85.9375 39.1875C87.1042 38.1458 88.4583 37.3542 90 36.8125C91.5833 36.2292 93.3125 35.9375 95.1875 35.9375C96.6458 35.9375 98.0833 36.1875 99.5 36.6875C100.958 37.1458 102.25 37.8333 103.375 38.75C104.542 39.6667 105.479 40.8333 106.188 42.25C106.896 43.625 107.25 45.2083 107.25 47ZM86.125 47C86.125 49.3333 87.125 51.4583 89.125 53.375C91.1667 55.2917 93.875 56.7917 97.25 57.875C99.3333 56.7083 100.958 55.2917 102.125 53.625C103.292 51.9583 103.875 50 103.875 47.75C103.875 46.1667 103.646 44.7708 103.188 43.5625C102.729 42.3125 102.104 41.2708 101.312 40.4375C100.521 39.5625 99.5833 38.8958 98.5 38.4375C97.4167 37.9792 96.2708 37.75 95.0625 37.75C93.9375 37.75 92.8333 37.9583 91.75 38.375C90.6667 38.7917 89.7083 39.3958 88.875 40.1875C88.0417 40.9792 87.375 41.9583 86.875 43.125C86.375 44.25 86.125 45.5417 86.125 47ZM84.375 72.5C84.375 74.0833 84.6458 75.5 85.1875 76.75C85.7708 77.9583 86.5208 78.9792 87.4375 79.8125C88.3958 80.6458 89.4792 81.2917 90.6875 81.75C91.8958 82.2083 93.125 82.4375 94.375 82.4375C95.7917 82.4375 97.125 82.2083 98.375 81.75C99.6667 81.25 100.771 80.5625 101.688 79.6875C102.646 78.8125 103.396 77.7917 103.938 76.625C104.521 75.4167 104.812 74.0833 104.812 72.625C104.812 70.7917 104.542 69.2708 104 68.0625C103.458 66.8125 102.667 65.75 101.625 64.875C100.625 63.9583 99.375 63.1667 97.875 62.5C96.4167 61.8333 94.75 61.125 92.875 60.375C89.875 61.7083 87.7083 63.3958 86.375 65.4375C85.0417 67.4375 84.375 69.7917 84.375 72.5Z" fill="black"/>
</svg>
