<svg width="160" height="117" viewBox="0 0 160 117" fill="none" xmlns="http://www.w3.org/2000/svg">
<path d="M1 98V19C1 9.05887 9.05887 1 19 1H80H141C150.941 1 159 9.05888 159 19V58.5V98C159 107.941 150.941 116 141 116H19C9.05887 116 1 107.941 1 98Z" stroke="black" stroke-width="2"/>
<path d="M57.9375 77.25C57.9375 78.75 58 79.9375 58.125 80.8125C58.2917 81.6875 58.5833 82.3542 59 82.8125C59.4583 83.2708 60.0833 83.5833 60.875 83.75C61.6667 83.875 62.7292 83.9375 64.0625 83.9375V85.5C63.1875 85.5 61.9792 85.5 60.4375 85.5C58.9375 85.4583 57.375 85.4375 55.75 85.4375C54.0833 85.4375 52.4792 85.4583 50.9375 85.5C49.4375 85.5 48.2708 85.5 47.4375 85.5V83.9375C48.8125 83.9375 49.9167 83.875 50.75 83.75C51.5833 83.5833 52.2292 83.25 52.6875 82.75C53.1042 82.2917 53.375 81.625 53.5 80.75C53.6667 79.875 53.75 78.7083 53.75 77.25V46.4375C53.75 45.1458 53.6458 44.125 53.4375 43.375C53.2708 42.5833 52.9583 42 52.5 41.625C52.0417 41.2083 51.3958 40.9375 50.5625 40.8125C49.7708 40.6458 48.7292 40.5417 47.4375 40.5V38.8125C52.4375 38.9375 57.5 39 62.625 39C67.75 39 72.8125 38.9375 77.8125 38.8125L78.1875 48.25L76.5625 48.1875C76.3542 46.7708 76.1042 45.5833 75.8125 44.625C75.5625 43.6667 75.1042 42.9167 74.4375 42.375C73.8125 41.7917 72.9167 41.3958 71.75 41.1875C70.5833 40.9375 69.0208 40.8125 67.0625 40.8125H57.9375V60H67.0625C69.0625 60 70.4375 59.6667 71.1875 59C71.9792 58.3333 72.4375 56.8125 72.5625 54.4375H74.3125C74.2292 55.2708 74.1667 56.3125 74.125 57.5625C74.125 58.7708 74.125 60.0625 74.125 61.4375C74.125 62.8125 74.125 64.1458 74.125 65.4375C74.1667 66.7292 74.2292 67.8333 74.3125 68.75H72.75C72.625 66.4583 72.1875 64.875 71.4375 64C70.7292 63.0833 69.3125 62.625 67.1875 62.625H57.9375V77.25ZM106.625 64.9375C105.333 66.3125 104 67.3125 102.625 67.9375C101.25 68.5625 99.8125 68.9583 98.3125 69.125C96.3542 69.2917 94.5 69.0208 92.75 68.3125C91.0417 67.6042 89.5417 66.5625 88.25 65.1875C86.9583 63.7708 85.9167 62.0833 85.125 60.125C84.375 58.125 84 55.9375 84 53.5625C84 51.3542 84.2917 49.3125 84.875 47.4375C85.5 45.5625 86.375 43.9375 87.5 42.5625C88.6667 41.1875 90.0625 40.1042 91.6875 39.3125C93.3125 38.5208 95.1458 38.125 97.1875 38.125C99.3125 38.125 101.271 38.625 103.062 39.625C104.854 40.5833 106.396 41.9375 107.688 43.6875C108.979 45.4375 109.979 47.5417 110.688 50C111.396 52.4583 111.75 55.1875 111.75 58.1875C111.75 62.1042 111.104 65.7917 109.812 69.25C108.521 72.7083 106.688 75.75 104.312 78.375C101.979 80.9583 99.1667 83 95.875 84.5C92.625 86 89 86.7708 85 86.8125L84.9375 85.1875C87.7292 84.9375 90.3125 84.2917 92.6875 83.25C95.1042 82.2083 97.25 80.8125 99.125 79.0625C101 77.3125 102.562 75.25 103.812 72.875C105.104 70.5 106.042 67.8542 106.625 64.9375ZM107.188 56.4375C107.271 54.3542 107.104 52.3333 106.688 50.375C106.312 48.375 105.688 46.625 104.812 45.125C103.979 43.5833 102.917 42.3542 101.625 41.4375C100.333 40.4792 98.8333 40 97.125 40C95.4583 40 94.0417 40.3958 92.875 41.1875C91.75 41.9792 90.8333 43.0208 90.125 44.3125C89.4583 45.6042 89 47.0625 88.75 48.6875C88.5 50.3125 88.4167 51.9583 88.5 53.625C88.5833 55.375 88.8958 57.0625 89.4375 58.6875C89.9792 60.3125 90.7083 61.75 91.625 63C92.5417 64.2083 93.625 65.1458 94.875 65.8125C96.1667 66.4792 97.6042 66.7083 99.1875 66.5C101.438 66.125 103.312 65.0833 104.812 63.375C106.312 61.625 107.104 59.3125 107.188 56.4375Z" fill="black"/>
</svg>
