<svg width="120" height="117" viewBox="0 0 120 117" fill="none" xmlns="http://www.w3.org/2000/svg">
<path d="M1 19C1 9.05887 9.05888 1 19 1H59.75H100.5C110.441 1 118.5 9.05888 118.5 19V58.5V98C118.5 107.941 110.441 116 100.5 116H19C9.05887 116 1 107.941 1 98V19Z" stroke="black" stroke-width="2"/>
<path d="M59.25 85.125C58.125 85.125 57.2083 84.7708 56.5 84.0625C55.7917 83.3542 55.4375 82.4583 55.4375 81.375C55.4375 80.3333 55.7917 79.4583 56.5 78.75C57.2083 78 58.125 77.625 59.25 77.625C60.375 77.625 61.3125 78 62.0625 78.75C62.8125 79.4583 63.1875 80.3333 63.1875 81.375C63.1875 82.4583 62.8125 83.3542 62.0625 84.0625C61.3125 84.7708 60.375 85.125 59.25 85.125Z" fill="black"/>
</svg>
