<svg width="120" height="117" viewBox="0 0 120 117" fill="none" xmlns="http://www.w3.org/2000/svg">
<path d="M1 19C1 9.05887 9.05888 1 19 1H59.75H100.5C110.441 1 118.5 9.05888 118.5 19V58.5V98C118.5 107.941 110.441 116 100.5 116H19C9.05887 116 1 107.941 1 98V19Z" stroke="black" stroke-width="2"/>
<path d="M79.125 46.6875H77.5C76.6667 42.9792 75.0625 40.2292 72.6875 38.4375C70.3542 36.6458 67.1458 35.75 63.0625 35.75C59.8125 35.75 56.9167 36.3958 54.375 37.6875C51.875 38.9792 49.7708 40.6667 48.0625 42.75C46.3542 44.8333 45.0625 47.2083 44.1875 49.875C43.3125 52.5 42.875 55.1875 42.875 57.9375C42.875 60.8542 43.3125 63.6875 44.1875 66.4375C45.1042 69.1458 46.4583 71.5417 48.25 73.625C50 75.75 52.1458 77.4375 54.6875 78.6875C57.2708 79.9375 60.2292 80.5625 63.5625 80.5625C66.6042 80.5625 68.9375 80.1667 70.5625 79.375C72.2292 78.5833 73.3125 78 73.8125 77.625V67.8125C73.8125 65.6875 73.3125 64.3542 72.3125 63.8125C71.3125 63.2292 69.7917 62.9375 67.75 62.9375V61.3125C68.8333 61.3542 70.0417 61.3958 71.375 61.4375C72.7083 61.4375 74.0417 61.4375 75.375 61.4375C76.75 61.4375 78.0625 61.4375 79.3125 61.4375C80.6042 61.3958 81.75 61.3542 82.75 61.3125V62.875C81.3333 62.875 80.1667 63.1667 79.25 63.75C78.375 64.3333 77.9375 65.6875 77.9375 67.8125V76.3125L79 77.375V78.9375C76.375 80.0625 73.6875 80.9583 70.9375 81.625C68.1875 82.25 65.4583 82.5625 62.75 82.5625C59.125 82.5625 55.8125 81.9375 52.8125 80.6875C49.8125 79.3958 47.2292 77.6667 45.0625 75.5C42.8958 73.2917 41.2083 70.7292 40 67.8125C38.8333 64.8542 38.25 61.7083 38.25 58.375C38.25 54.875 38.8542 51.625 40.0625 48.625C41.3125 45.625 43.0208 43.0417 45.1875 40.875C47.3125 38.6667 49.8125 36.9375 52.6875 35.6875C55.5625 34.4375 58.6458 33.8125 61.9375 33.8125C64.7708 33.8125 67.4375 34.1042 69.9375 34.6875C72.4792 35.2708 75.1458 36.0833 77.9375 37.125L79.125 46.6875Z" fill="black"/>
</svg>
