<svg width="120" height="117" viewBox="0 0 120 117" fill="none" xmlns="http://www.w3.org/2000/svg">
<path d="M1 19C1 9.05887 9.05888 1 19 1H59.75H100.5C110.441 1 118.5 9.05888 118.5 19V58.5V98C118.5 107.941 110.441 116 100.5 116H19C9.05887 116 1 107.941 1 98V19Z" stroke="black" stroke-width="2"/>
<path d="M73.875 58.75V45.375C73.875 44.0417 73.7708 43 73.5625 42.25C73.3542 41.4583 73.0208 40.8542 72.5625 40.4375C72.1042 40.0208 71.4583 39.7708 70.625 39.6875C69.8333 39.5625 68.8542 39.4792 67.6875 39.4375V37.8125C68.5625 37.8542 69.7708 37.8958 71.3125 37.9375C72.8542 37.9375 74.4375 37.9375 76.0625 37.9375C77.7292 37.9375 79.2917 37.9375 80.75 37.9375C82.2083 37.8958 83.3333 37.8542 84.125 37.8125V39.4375C82.9167 39.4792 81.9167 39.5625 81.125 39.6875C80.3333 39.8125 79.7083 40.0833 79.25 40.5C78.75 40.9167 78.4167 41.5208 78.25 42.3125C78.0833 43.0625 78 44.0833 78 45.375V76.1875C78 77.6042 78.0833 78.75 78.25 79.625C78.4167 80.5 78.7292 81.1875 79.1875 81.6875C79.6458 82.1875 80.2708 82.5208 81.0625 82.6875C81.8542 82.8542 82.875 82.9375 84.125 82.9375V84.5C83.3333 84.4583 82.1875 84.4375 80.6875 84.4375C79.2292 84.3958 77.6875 84.375 76.0625 84.375C74.4375 84.375 72.8542 84.3958 71.3125 84.4375C69.7708 84.4375 68.5625 84.4583 67.6875 84.5V82.9375C68.9792 82.9375 70.0208 82.8333 70.8125 82.625C71.6042 82.4167 72.2292 82.0625 72.6875 81.5625C73.1458 81.0625 73.4583 80.3958 73.625 79.5625C73.7917 78.6875 73.875 77.5625 73.875 76.1875V61.375H44.3125V76.1875C44.3125 77.5625 44.375 78.6875 44.5 79.5625C44.625 80.4375 44.9167 81.125 45.375 81.625C45.7917 82.125 46.3958 82.4792 47.1875 82.6875C47.9792 82.8542 49.0417 82.9375 50.375 82.9375V84.5C49.5417 84.5 48.375 84.5 46.875 84.5C45.4167 84.4583 43.875 84.4375 42.25 84.4375C40.5833 84.4375 39 84.4375 37.5 84.4375C36 84.4375 34.8333 84.4583 34 84.5V82.9375C36.5 82.9375 38.1458 82.5 38.9375 81.625C39.7292 80.7083 40.125 78.8958 40.125 76.1875V45.5625C40.125 44.2292 40.0208 43.1667 39.8125 42.375C39.6458 41.5833 39.3333 40.9792 38.875 40.5625C38.4167 40.1042 37.7917 39.8125 37 39.6875C36.2083 39.5625 35.2083 39.4792 34 39.4375V37.8125C34.7917 37.8958 35.9167 37.9583 37.375 38C38.875 38 40.4583 38 42.125 38C43.75 38 45.3125 38 46.8125 38C48.3542 37.9583 49.5417 37.8958 50.375 37.8125V39.4375C49.1667 39.4792 48.1667 39.5833 47.375 39.75C46.5833 39.875 45.9583 40.1458 45.5 40.5625C45.0417 41.0208 44.7292 41.6458 44.5625 42.4375C44.3958 43.2292 44.3125 44.2708 44.3125 45.5625V58.75H73.875Z" fill="black"/>
</svg>
