<svg width="120" height="117" viewBox="0 0 120 117" fill="none" xmlns="http://www.w3.org/2000/svg">
<path d="M1 19C1 9.05887 9.05888 1 19 1H59.75H100.5C110.441 1 118.5 9.05888 118.5 19V58.5V98C118.5 107.941 110.441 116 100.5 116H19C9.05887 116 1 107.941 1 98V19Z" stroke="black" stroke-width="2"/>
<path d="M57.125 42.5C57.125 41.1667 57.0208 40.1042 56.8125 39.3125C56.6458 38.5208 56.3333 37.9167 55.875 37.5C55.4167 37.0833 54.7917 36.8125 54 36.6875C53.2083 36.5625 52.2083 36.4792 51 36.4375V34.8125C51.7917 34.8958 52.9167 34.9375 54.375 34.9375C55.875 34.9375 57.4583 34.9375 59.125 34.9375C60.75 34.9375 62.3125 34.9375 63.8125 34.9375C65.3542 34.8958 66.5417 34.8542 67.375 34.8125V36.4375C66.1667 36.4792 65.1667 36.5625 64.375 36.6875C63.5833 36.8125 62.9583 37.0833 62.5 37.5C62.0417 37.9167 61.7292 38.5208 61.5625 39.3125C61.3958 40.1042 61.3125 41.1667 61.3125 42.5V73.1875C61.3125 75.9375 61.7083 77.75 62.5 78.625C63.3333 79.5 64.9583 79.9375 67.375 79.9375V81.5C66.5417 81.5 65.375 81.5 63.875 81.5C62.4167 81.4583 60.875 81.4375 59.25 81.4375C57.5833 81.4375 56 81.4375 54.5 81.4375C53 81.4375 51.8333 81.4583 51 81.5V79.9375C53.4167 79.9375 55.0417 79.5 55.875 78.625C56.7083 77.7083 57.125 75.8958 57.125 73.1875V42.5Z" fill="black"/>
</svg>
