<svg width="120" height="117" viewBox="0 0 120 117" fill="none" xmlns="http://www.w3.org/2000/svg">
<path d="M1 19C1 9.05887 9.05888 1 19 1H59.75H100.5C110.441 1 118.5 9.05888 118.5 19V58.5V98C118.5 107.941 110.441 116 100.5 116H19C9.05887 116 1 107.941 1 98V19Z" stroke="black" stroke-width="2"/>
<path d="M63.125 71.8125C63.125 78.5208 62.1042 83.5208 60.0625 86.8125C58.0208 90.1458 54.9792 91.8125 50.9375 91.8125C49.3125 91.8125 47.8333 91.4375 46.5 90.6875C45.1667 89.9792 44.4583 88.875 44.375 87.375C44.375 86.625 44.5625 86.0208 44.9375 85.5625C45.3125 85.1458 45.8125 84.875 46.4375 84.75C47.0625 84.6667 47.6458 84.8542 48.1875 85.3125C48.7292 85.7708 49 86.3333 49 87C49 87.7917 49.2292 88.4583 49.6875 89C50.1458 89.5417 51.0625 89.8125 52.4375 89.8125C54.9792 89.8125 56.6875 88.7083 57.5625 86.5C58.4792 84.2917 58.9375 80.7917 58.9375 76V38.5625C58.9375 37.2292 58.8333 36.1667 58.625 35.375C58.4583 34.5833 58.1458 33.9792 57.6875 33.5625C57.2292 33.1042 56.6042 32.8125 55.8125 32.6875C55.0208 32.5625 54.0208 32.4792 52.8125 32.4375V30.8125C53.6042 30.8958 54.7292 30.9375 56.1875 30.9375C57.6875 30.9375 59.2708 30.9375 60.9375 30.9375C62.5625 30.9375 64.125 30.9375 65.625 30.9375C67.1667 30.8958 68.3542 30.8542 69.1875 30.8125V32.4375C67.9792 32.4792 66.9792 32.5625 66.1875 32.6875C65.4375 32.8125 64.8333 33.0833 64.375 33.5C63.875 33.9167 63.5417 34.5417 63.375 35.375C63.2083 36.1667 63.125 37.2292 63.125 38.5625V71.8125Z" fill="black"/>
</svg>
