<svg width="120" height="117" viewBox="0 0 120 117" fill="none" xmlns="http://www.w3.org/2000/svg">
<path d="M1 19C1 9.05887 9.05888 1 19 1H59.75H100.5C110.441 1 118.5 9.05888 118.5 19V58.5V98C118.5 107.941 110.441 116 100.5 116H19C9.05887 116 1 107.941 1 98V19Z" stroke="black" stroke-width="2"/>
<path d="M73.6875 78.5625C74.1458 79.1875 74.7083 79.6667 75.375 80C76.0417 80.3333 76.7083 80.5625 77.375 80.6875C78.0833 80.8542 78.7292 80.9375 79.3125 80.9375C79.9375 80.9375 80.4375 80.9375 80.8125 80.9375V82.4375C80.2292 82.4375 79.5208 82.4375 78.6875 82.4375C77.8542 82.3958 77 82.375 76.125 82.375C75.25 82.375 74.3958 82.3958 73.5625 82.4375C72.7292 82.4375 72.0417 82.4375 71.5 82.4375L53.5625 57.5625L48.3125 62.625V74.25C48.3125 77.0833 48.6875 78.9167 49.4375 79.75C50.2292 80.5417 51.6667 80.9375 53.75 80.9375V82.5C52.9167 82.5 51.7917 82.5 50.375 82.5C48.9583 82.4583 47.4792 82.4375 45.9375 82.4375C44.3542 82.4375 42.8333 82.4375 41.375 82.4375C39.9583 82.4375 38.8333 82.4583 38 82.5V80.9375C39.2083 80.9375 40.2083 80.8542 41 80.6875C41.7917 80.5208 42.4167 80.1875 42.875 79.6875C43.3333 79.2292 43.6458 78.5625 43.8125 77.6875C44.0208 76.8125 44.125 75.6667 44.125 74.25V43.625C44.125 42.2917 44.0208 41.2292 43.8125 40.4375C43.6458 39.6458 43.3333 39.0208 42.875 38.5625C42.4167 38.1458 41.7917 37.875 41 37.75C40.2083 37.5833 39.2083 37.4792 38 37.4375V35.8125C38.7917 35.8542 39.8958 35.8958 41.3125 35.9375C42.7708 35.9375 44.2708 35.9375 45.8125 35.9375C47.3542 35.9375 48.8125 35.9375 50.1875 35.9375C51.6042 35.8958 52.6875 35.8542 53.4375 35.8125V37.4375C52.4375 37.4792 51.6042 37.5833 50.9375 37.75C50.2708 37.875 49.75 38.1458 49.375 38.5625C48.9583 39.0208 48.6667 39.6458 48.5 40.4375C48.375 41.2292 48.3125 42.2917 48.3125 43.625V60.3125L66.375 42.8125C66.5417 42.6458 66.7917 42.3958 67.125 42.0625C67.4583 41.7292 67.7708 41.375 68.0625 41C68.3958 40.6667 68.6667 40.3125 68.875 39.9375C69.125 39.5625 69.25 39.25 69.25 39C69.25 38.3333 68.875 37.9167 68.125 37.75C67.375 37.5417 66.5 37.4375 65.5 37.4375V35.8125C66.25 35.8542 67.1875 35.8958 68.3125 35.9375C69.4792 35.9792 70.6875 36 71.9375 36C73.1458 36 74.3125 36 75.4375 36C76.5625 36 77.4792 35.9583 78.1875 35.875V37.4375C77.4375 37.4375 76.7083 37.5417 76 37.75C75.3333 37.9167 74.5833 38.2708 73.75 38.8125C72.9167 39.3125 71.9375 40.0417 70.8125 41C69.7292 41.9167 68.4375 43.1042 66.9375 44.5625L56.125 55.0625L73.6875 78.5625Z" fill="black"/>
</svg>
