<svg width="120" height="117" viewBox="0 0 120 117" fill="none" xmlns="http://www.w3.org/2000/svg">
<path d="M1 19C1 9.05887 9.05888 1 19 1H59.75H100.5C110.441 1 118.5 9.05888 118.5 19V58.5V98C118.5 107.941 110.441 116 100.5 116H19C9.05887 116 1 107.941 1 98V19Z" stroke="black" stroke-width="2"/>
<path d="M75.1875 83.5C73.1042 83.4583 70.625 83.4167 67.75 83.375C64.9167 83.3333 62 83.3125 59 83.3125C55.9583 83.3125 53 83.3333 50.125 83.375C47.25 83.4167 44.7708 83.4583 42.6875 83.5V82C43.9375 82 44.9583 81.9167 45.75 81.75C46.5417 81.5417 47.1458 81.1875 47.5625 80.6875C48.0208 80.1875 48.3333 79.5 48.5 78.625C48.6667 77.7083 48.75 76.5208 48.75 75.0625V44.5625C48.75 43.2292 48.6458 42.1667 48.4375 41.375C48.2708 40.5417 47.9583 39.9167 47.5 39.5C47.0417 39.0833 46.4167 38.8125 45.625 38.6875C44.8333 38.5625 43.8542 38.4792 42.6875 38.4375V36.8125C43.4375 36.8958 44.5625 36.9583 46.0625 37C47.5625 37 49.125 37 50.75 37C52.375 37 53.9375 37 55.4375 37C56.9792 36.9583 58.1875 36.8958 59.0625 36.8125V38.4375C57.8125 38.4792 56.7917 38.5625 56 38.6875C55.2083 38.8125 54.5833 39.1042 54.125 39.5625C53.6667 39.9792 53.3542 40.5833 53.1875 41.375C53.0208 42.1667 52.9375 43.2292 52.9375 44.5625V75.0625C52.9375 76.4792 53.0833 77.625 53.375 78.5C53.6667 79.3333 54.2292 79.9792 55.0625 80.4375C55.8958 80.8958 57.0833 81.2083 58.625 81.375C60.2083 81.5 62.25 81.5625 64.75 81.5625C66.5833 81.5625 68.125 81.4583 69.375 81.25C70.625 81.0417 71.6875 80.625 72.5625 80C73.3958 79.375 74.1042 78.5417 74.6875 77.5C75.2708 76.4167 75.8125 75.0208 76.3125 73.3125H77.6875L75.1875 83.5Z" fill="black"/>
</svg>
