<svg width="120" height="117" viewBox="0 0 120 117" fill="none" xmlns="http://www.w3.org/2000/svg">
<path d="M1 19C1 9.05887 9.05888 1 19 1H59.75H100.5C110.441 1 118.5 9.05888 118.5 19V58.5V98C118.5 107.941 110.441 116 100.5 116H19C9.05887 116 1 107.941 1 98V19Z" stroke="black" stroke-width="2"/>
<path d="M59.75 78.6875L78.5 37.875C79 37.9583 79.6875 38.0208 80.5625 38.0625C81.4792 38.0625 82.4167 38.0625 83.375 38.0625C84.375 38.0625 85.3125 38.0417 86.1875 38C87.0625 37.9583 87.75 37.8958 88.25 37.8125V39.4375C86 39.4375 84.4375 39.8958 83.5625 40.8125C82.7292 41.7292 82.3125 43.1667 82.3125 45.125L83 76.0625C83.0417 77.4375 83.1667 78.5833 83.375 79.5C83.5833 80.375 83.9583 81.0625 84.5 81.5625C85 82.0625 85.7292 82.4167 86.6875 82.625C87.6458 82.8333 88.9167 82.9375 90.5 82.9375V84.5C89.5 84.5 88.1458 84.5 86.4375 84.5C84.7292 84.5 82.9583 84.5 81.125 84.5C79.2917 84.5 77.5417 84.5 75.875 84.5C74.2083 84.5 72.9167 84.5 72 84.5V82.9375C73.375 82.9375 74.5 82.8542 75.375 82.6875C76.2917 82.4792 77 82.125 77.5 81.625C78 81.125 78.3542 80.4375 78.5625 79.5625C78.7708 78.6458 78.875 77.4792 78.875 76.0625L78.4375 43.3125L59.3125 84.9375H58.375L39.5625 44.5L38.9375 76.25C38.9375 78.6667 39.2708 80.375 39.9375 81.375C40.6042 82.3333 42 82.8542 44.125 82.9375V84.5C43.125 84.5 41.9583 84.5 40.625 84.5C39.2917 84.4583 37.9167 84.4375 36.5 84.4375C35.0833 84.4375 33.7083 84.4375 32.375 84.4375C31.0417 84.4375 29.8542 84.4583 28.8125 84.5V82.9375C30.1875 82.8958 31.3542 82.7917 32.3125 82.625C33.3125 82.4583 34.125 82.1458 34.75 81.6875C35.375 81.1875 35.8333 80.5 36.125 79.625C36.4583 78.75 36.6667 77.5625 36.75 76.0625L37.5625 45.1875C37.5625 43.1042 37.0625 41.625 36.0625 40.75C35.0625 39.875 33.5833 39.4375 31.625 39.4375V37.8125C32.2917 37.8958 33.0417 37.9583 33.875 38C34.75 38 35.6042 38 36.4375 38C37.2708 38 38.0625 38 38.8125 38C39.5625 37.9583 40.1667 37.8958 40.625 37.8125L59.75 78.6875Z" fill="black"/>
</svg>
