<svg width="120" height="117" viewBox="0 0 120 117" fill="none" xmlns="http://www.w3.org/2000/svg">
<path d="M1 19C1 9.05887 9.05888 1 19 1H59.75H100.5C110.441 1 118.5 9.05888 118.5 19V58.5V98C118.5 107.941 110.441 116 100.5 116H19C9.05887 116 1 107.941 1 98V19Z" stroke="black" stroke-width="2"/>
<path d="M78.5 84.1875H77.0625L43.5625 43.25V75.1875C43.5625 76.7292 43.6458 77.9583 43.8125 78.875C44.0208 79.75 44.375 80.4167 44.875 80.875C45.375 81.3333 46.0208 81.625 46.8125 81.75C47.6042 81.875 48.6042 81.9375 49.8125 81.9375V83.5C48.7292 83.5 47.5 83.5 46.125 83.5C44.7917 83.4583 43.4375 83.4375 42.0625 83.4375C40.6458 83.4375 39.2708 83.4375 37.9375 83.4375C36.6042 83.4375 35.4167 83.4583 34.375 83.5V81.9375C35.6667 81.9375 36.7708 81.875 37.6875 81.75C38.6042 81.5833 39.3333 81.2708 39.875 80.8125C40.4583 80.3542 40.875 79.6875 41.125 78.8125C41.375 77.9375 41.5 76.75 41.5 75.25V44.8125C41.5 42.3542 40.8333 40.6875 39.5 39.8125C38.1667 38.8958 36.0833 38.4375 33.25 38.4375V36.875C33.75 36.9583 34.4375 37 35.3125 37C36.1875 37 37.1042 37 38.0625 37C39.0208 37 39.9167 37 40.75 37C41.625 36.9583 42.2917 36.9167 42.75 36.875L76.4375 77.125V44.75C76.4375 43.4583 76.3333 42.4167 76.125 41.625C75.9583 40.7917 75.6458 40.1458 75.1875 39.6875C74.7292 39.2292 74.0833 38.9167 73.25 38.75C72.4167 38.5833 71.3542 38.4792 70.0625 38.4375V36.8125C70.8542 36.8542 71.9375 36.8958 73.3125 36.9375C74.6875 36.9375 76.0833 36.9375 77.5 36.9375C78.9583 36.9375 80.3542 36.9375 81.6875 36.9375C83.0208 36.8958 84.0625 36.8542 84.8125 36.8125V38.4375C83.4375 38.4375 82.3333 38.5208 81.5 38.6875C80.7083 38.8125 80.0833 39.1042 79.625 39.5625C79.1667 40.0208 78.8542 40.6667 78.6875 41.5C78.5625 42.2917 78.5 43.375 78.5 44.75V84.1875Z" fill="black"/>
</svg>
