<svg width="120" height="117" viewBox="0 0 120 117" fill="none" xmlns="http://www.w3.org/2000/svg">
<path d="M1 19C1 9.05887 9.05888 1 19 1H59.75H100.5C110.441 1 118.5 9.05888 118.5 19V58.5V98C118.5 107.941 110.441 116 100.5 116H19C9.05887 116 1 107.941 1 98V19Z" stroke="black" stroke-width="2"/>
<path d="M81.9375 59.9375C81.9375 63.0208 81.375 66.0417 80.25 69C79.125 71.9583 77.5417 74.5833 75.5 76.875C73.5 79.2083 71.0833 81.0833 68.25 82.5C65.4167 83.875 62.3125 84.5625 58.9375 84.5625C55.8125 84.5625 52.8542 83.9167 50.0625 82.625C47.3125 81.3333 44.9167 79.5833 42.875 77.375C40.7917 75.1667 39.1458 72.6042 37.9375 69.6875C36.7708 66.7708 36.1875 63.6875 36.1875 60.4375C36.1875 57.3542 36.7292 54.3542 37.8125 51.4375C38.9375 48.4792 40.5 45.8333 42.5 43.5C44.5417 41.2083 46.9583 39.3542 49.75 37.9375C52.5833 36.5208 55.7083 35.8125 59.125 35.8125C62.2083 35.8125 65.125 36.4792 67.875 37.8125C70.6667 39.1042 73.1042 40.8542 75.1875 43.0625C77.2292 45.2708 78.8542 47.8333 80.0625 50.75C81.3125 53.6667 81.9375 56.7292 81.9375 59.9375ZM76.9375 61.8125C76.9375 59.2708 76.5625 56.5833 75.8125 53.75C75.0625 50.9167 73.9167 48.3125 72.375 45.9375C70.875 43.5625 68.9375 41.6042 66.5625 40.0625C64.2292 38.5208 61.4792 37.75 58.3125 37.75C55.7292 37.75 53.375 38.2708 51.25 39.3125C49.1667 40.3542 47.3542 41.7917 45.8125 43.625C44.3125 45.4583 43.1458 47.6458 42.3125 50.1875C41.4792 52.7292 41.0625 55.5 41.0625 58.5C41.0625 61.0833 41.4375 63.7917 42.1875 66.625C42.9375 69.4583 44.0625 72.0625 45.5625 74.4375C47.1042 76.8125 49.0417 78.7708 51.375 80.3125C53.7083 81.8125 56.4792 82.5625 59.6875 82.5625C62.4375 82.5625 64.875 82.0625 67 81.0625C69.1667 80.0208 70.9792 78.5833 72.4375 76.75C73.8958 74.9167 75 72.7292 75.75 70.1875C76.5417 67.6458 76.9375 64.8542 76.9375 61.8125Z" fill="black"/>
</svg>
