<svg width="120" height="117" viewBox="0 0 120 117" fill="none" xmlns="http://www.w3.org/2000/svg">
<path d="M1 19C1 9.05887 9.05888 1 19 1H59.75H100.5C110.441 1 118.5 9.05888 118.5 19V58.5V98C118.5 107.941 110.441 116 100.5 116H19C9.05887 116 1 107.941 1 98V19Z" stroke="black" stroke-width="2"/>
<path d="M54.3125 73.125C54.3125 74.625 54.3958 75.8125 54.5625 76.6875C54.7292 77.5625 55.0417 78.25 55.5 78.75C55.9583 79.2083 56.5833 79.5208 57.375 79.6875C58.1667 79.8542 59.1875 79.9375 60.4375 79.9375V81.5C59.2708 81.5 57.9792 81.5 56.5625 81.5C55.1458 81.4583 53.6875 81.4375 52.1875 81.4375C50.7292 81.4375 49.2708 81.4375 47.8125 81.4375C46.3958 81.4375 45.125 81.4583 44 81.5V79.9375C45.2083 79.9375 46.2083 79.8542 47 79.6875C47.7917 79.5208 48.4167 79.2083 48.875 78.75C49.3333 78.25 49.6458 77.5625 49.8125 76.6875C50.0208 75.8125 50.125 74.625 50.125 73.125V42.4375C50.125 41.1458 50.0417 40.125 49.875 39.375C49.7083 38.5833 49.4167 37.9583 49 37.5C48.5833 37.0833 47.9792 36.8125 47.1875 36.6875C46.4375 36.5208 45.4375 36.4375 44.1875 36.4375V34.875C45.1042 34.9167 46.25 34.9583 47.625 35C49 35 50.4167 34.9792 51.875 34.9375C53.3333 34.9375 54.75 34.9375 56.125 34.9375C57.5 34.8958 58.6458 34.8542 59.5625 34.8125C64.1875 34.8125 67.9375 36.0208 70.8125 38.4375C73.6875 40.8125 75.125 44.0208 75.125 48.0625C75.125 50.1042 74.75 51.9375 74 53.5625C73.2917 55.1875 72.3333 56.5625 71.125 57.6875C69.9167 58.8542 68.5208 59.7708 66.9375 60.4375C65.3542 61.1042 63.6875 61.4583 61.9375 61.5C61.3542 61.5417 60.7292 61.5833 60.0625 61.625C59.4375 61.625 58.7917 61.625 58.125 61.625C57.4167 61.625 56.7292 61.625 56.0625 61.625C55.4375 61.5833 54.8542 61.5625 54.3125 61.5625V73.125ZM54.3125 59.125C55.3958 59.25 56.5417 59.3333 57.75 59.375C58.9583 59.4167 60.0625 59.4167 61.0625 59.375C63.9375 59.2917 66.25 58.2917 68 56.375C69.75 54.4583 70.625 51.8333 70.625 48.5C70.625 46.5417 70.2708 44.8333 69.5625 43.375C68.8958 41.9167 68 40.7083 66.875 39.75C65.75 38.75 64.4375 38.0208 62.9375 37.5625C61.4792 37.0625 59.9792 36.8125 58.4375 36.8125C57.9375 36.8125 57.2083 36.875 56.25 37C55.2917 37.0833 54.6458 37.1458 54.3125 37.1875V59.125Z" fill="black"/>
</svg>
