<svg width="120" height="117" viewBox="0 0 120 117" fill="none" xmlns="http://www.w3.org/2000/svg">
<path d="M1 19C1 9.05887 9.05888 1 19 1H59.75H100.5C110.441 1 118.5 9.05888 118.5 19V58.5V98C118.5 107.941 110.441 116 100.5 116H19C9.05887 116 1 107.941 1 98V19Z" stroke="black" stroke-width="2"/>
<path d="M63.125 78.125C65 80.9583 67.625 82.9375 71 84.0625C74.375 85.1875 78.5 85.5625 83.375 85.1875V86.625C80.875 87.125 78.375 87.3542 75.875 87.3125C73.375 87.2708 71.0208 86.9583 68.8125 86.375C66.5625 85.7083 64.5 84.7292 62.625 83.4375C60.7917 82.1458 59.25 80.4792 58 78.4375C54.9583 78.3125 52.1042 77.5833 49.4375 76.25C46.8125 74.9167 44.5208 73.1667 42.5625 71C40.5625 68.7917 39 66.2708 37.875 63.4375C36.75 60.6042 36.1875 57.6042 36.1875 54.4375C36.1875 51.3542 36.7292 48.3542 37.8125 45.4375C38.9375 42.4792 40.5 39.8333 42.5 37.5C44.5417 35.2083 46.9583 33.3542 49.75 31.9375C52.5833 30.5208 55.7083 29.8125 59.125 29.8125C62.2083 29.8125 65.125 30.4792 67.875 31.8125C70.6667 33.1042 73.1042 34.8542 75.1875 37.0625C77.2292 39.2708 78.8542 41.8333 80.0625 44.75C81.3125 47.6667 81.9375 50.7292 81.9375 53.9375C81.9375 56.6875 81.4792 59.3958 80.5625 62.0625C79.6875 64.7292 78.4167 67.1667 76.75 69.375C75.125 71.5833 73.1458 73.4583 70.8125 75C68.5208 76.5417 65.9583 77.5833 63.125 78.125ZM76.9375 55.8125C76.9375 53.2708 76.5625 50.5833 75.8125 47.75C75.0625 44.9167 73.9167 42.3125 72.375 39.9375C70.875 37.5625 68.9375 35.6042 66.5625 34.0625C64.2292 32.5208 61.4792 31.75 58.3125 31.75C55.7292 31.75 53.375 32.2708 51.25 33.3125C49.1667 34.3542 47.3542 35.7917 45.8125 37.625C44.3125 39.4583 43.1458 41.6458 42.3125 44.1875C41.4792 46.7292 41.0625 49.5 41.0625 52.5C41.0625 55.0833 41.4375 57.7917 42.1875 60.625C42.9375 63.4583 44.0625 66.0625 45.5625 68.4375C47.1042 70.8125 49.0417 72.7708 51.375 74.3125C53.7083 75.8125 56.4792 76.5625 59.6875 76.5625C62.4375 76.5625 64.875 76.0625 67 75.0625C69.1667 74.0208 70.9792 72.5833 72.4375 70.75C73.8958 68.9167 75 66.7292 75.75 64.1875C76.5417 61.6458 76.9375 58.8542 76.9375 55.8125Z" fill="black"/>
</svg>
