<svg width="120" height="117" viewBox="0 0 120 117" fill="none" xmlns="http://www.w3.org/2000/svg">
<path d="M1 19C1 9.05887 9.05888 1 19 1H59.75H100.5C110.441 1 118.5 9.05888 118.5 19V58.5V98C118.5 107.941 110.441 116 100.5 116H19C9.05887 116 1 107.941 1 98V19Z" stroke="black" stroke-width="2"/>
<path d="M48.9375 61.375V75.1875C48.9375 76.5625 49 77.6875 49.125 78.5625C49.2917 79.3958 49.5833 80.0625 50 80.5625C50.4583 81.0625 51.0833 81.4167 51.875 81.625C52.6667 81.8333 53.7292 81.9375 55.0625 81.9375V83.5C54.2292 83.4583 53.0625 83.4375 51.5625 83.4375C50.0625 83.3958 48.5 83.375 46.875 83.375C45.25 83.375 43.6667 83.3958 42.125 83.4375C40.625 83.4375 39.4792 83.4583 38.6875 83.5V82C39.8958 82 40.875 81.9375 41.625 81.8125C42.4167 81.6458 43.0417 81.3333 43.5 80.875C43.9583 80.375 44.2708 79.6875 44.4375 78.8125C44.6458 77.8958 44.75 76.6875 44.75 75.1875V44.5625C44.75 43.2708 44.6458 42.2292 44.4375 41.4375C44.2708 40.6458 43.9583 40.0208 43.5 39.5625C43.0417 39.1458 42.4167 38.875 41.625 38.75C40.8333 38.5833 39.8542 38.4792 38.6875 38.4375V36.8125C39.7292 36.8542 41.0417 36.8958 42.625 36.9375C44.2083 36.9375 45.8542 36.9375 47.5625 36.9375C49.2708 36.9375 50.9375 36.9375 52.5625 36.9375C54.1875 36.8958 55.5625 36.8542 56.6875 36.8125C59.5208 36.8125 61.8542 37.2292 63.6875 38.0625C65.5625 38.8542 67.0417 39.8333 68.125 41C69.1667 42.2083 69.8958 43.5 70.3125 44.875C70.7708 46.2083 71 47.4375 71 48.5625C71 50.0625 70.7292 51.4583 70.1875 52.75C69.6875 54 69 55.125 68.125 56.125C67.25 57.1667 66.25 58.0417 65.125 58.75C64 59.4583 62.8333 59.9792 61.625 60.3125C62.4167 61.6875 63.3333 63.1875 64.375 64.8125C65.4583 66.3958 66.5625 67.9583 67.6875 69.5C68.8125 71.0833 69.8958 72.5833 70.9375 74C72.0208 75.375 72.9583 76.5208 73.75 77.4375C74.75 78.6875 75.8542 79.75 77.0625 80.625C78.2708 81.5 79.6667 81.9375 81.25 81.9375V83.5C79.75 83.4167 78.25 83.375 76.75 83.375C75.2917 83.375 73.8958 83.4167 72.5625 83.5C71.3542 81.9583 70.0833 80.2292 68.75 78.3125C67.4167 76.3958 66.0833 74.4583 64.75 72.5C63.375 70.5 62.0417 68.5417 60.75 66.625C59.5 64.7083 58.3542 62.9583 57.3125 61.375H48.9375ZM48.9375 59.0625C49.4375 59.1875 50.2083 59.2708 51.25 59.3125C52.2917 59.3125 53.125 59.3125 53.75 59.3125C56.0833 59.3125 58.0417 59.0208 59.625 58.4375C61.25 57.8125 62.5625 57 63.5625 56C64.5625 55.0417 65.2708 53.9583 65.6875 52.75C66.1458 51.5 66.375 50.25 66.375 49C66.375 47.5833 66.1458 46.25 65.6875 45C65.2708 43.75 64.5833 42.6667 63.625 41.75C62.6667 40.8333 61.4167 40.125 59.875 39.625C58.3333 39.0833 56.4375 38.8125 54.1875 38.8125C53.2292 38.8125 52.25 38.8542 51.25 38.9375C50.2917 38.9792 49.5208 39.0417 48.9375 39.125V59.0625Z" fill="black"/>
</svg>
