<svg width="120" height="117" viewBox="0 0 120 117" fill="none" xmlns="http://www.w3.org/2000/svg">
<path d="M1 19C1 9.05887 9.05888 1 19 1H59.75H100.5C110.441 1 118.5 9.05888 118.5 19V58.5V98C118.5 107.941 110.441 116 100.5 116H19C9.05887 116 1 107.941 1 98V19Z" stroke="black" stroke-width="2"/>
<path d="M46.25 72.5625H48C48.2917 73.8125 48.625 75.0417 49 76.25C49.375 77.4583 49.8958 78.5208 50.5625 79.4375C51.2708 80.3958 52.1667 81.1667 53.25 81.75C54.3333 82.2917 55.75 82.5625 57.5 82.5625C60.7083 82.5625 63.3333 81.7083 65.375 80C67.4167 78.2917 68.4375 76.1458 68.4375 73.5625C68.4375 72.0625 68.1667 70.75 67.625 69.625C67.0833 68.4583 66.375 67.4375 65.5 66.5625C64.5833 65.6875 63.5208 64.8958 62.3125 64.1875C61.1458 63.4792 59.9167 62.7708 58.625 62.0625C57.2917 61.3958 55.9792 60.6458 54.6875 59.8125C53.3958 58.9792 52.2083 58.0417 51.125 57C50.0833 55.9167 49.2292 54.7083 48.5625 53.375C47.9375 52 47.625 50.4583 47.625 48.75C47.625 46.5417 47.9792 44.625 48.6875 43C49.3958 41.375 50.375 40.0417 51.625 39C52.875 37.9167 54.3333 37.125 56 36.625C57.6667 36.0833 59.4583 35.8125 61.375 35.8125C62 35.8125 62.6042 35.8542 63.1875 35.9375C63.7708 35.9792 64.3542 36.0208 64.9375 36.0625C65.5208 36.1458 66.1042 36.25 66.6875 36.375C67.3125 36.4583 67.9792 36.5417 68.6875 36.625L69.75 45.25H68.125C67.7083 42.75 66.9792 40.875 65.9375 39.625C64.8958 38.375 63.0625 37.75 60.4375 37.75C57.1875 37.75 54.75 38.625 53.125 40.375C51.5417 42.0833 50.75 44.125 50.75 46.5C50.75 48 51.0833 49.3542 51.75 50.5625C52.4167 51.7292 53.2708 52.7917 54.3125 53.75C55.3958 54.7083 56.6042 55.5625 57.9375 56.3125C59.2708 57.0625 60.625 57.7708 62 58.4375C63.3333 59.1458 64.6042 59.8958 65.8125 60.6875C67.0625 61.4375 68.1667 62.2917 69.125 63.25C70.0833 64.25 70.8542 65.3958 71.4375 66.6875C72.0208 67.9375 72.3125 69.375 72.3125 71C72.3125 73.25 71.8542 75.2292 70.9375 76.9375C70.0625 78.6042 68.9167 80.0208 67.5 81.1875C66.0417 82.3125 64.3958 83.1667 62.5625 83.75C60.7708 84.2917 58.9583 84.5625 57.125 84.5625C55.4167 84.5625 53.75 84.3958 52.125 84.0625C50.5417 83.7292 49.0833 83.25 47.75 82.625L46.25 72.5625Z" fill="black"/>
</svg>
