<svg width="256" height="117" viewBox="0 0 256 117" fill="none" xmlns="http://www.w3.org/2000/svg">
<path d="M1 98V19C1 9.05887 9.05888 1 19 1H128H237C246.941 1 255 9.05888 255 19V58.5V98C255 107.941 246.941 116 237 116H19C9.05887 116 1 107.941 1 98Z" stroke="black" stroke-width="2"/>
<path d="M71.75 52.5H81.8125L63.4375 32.0625L45.0625 52.5625H55.0625V86.4375H71.75V52.5ZM53.4375 54.3125H41L63.375 29.4375L85.75 54.25H73.3125V88.25H53.4375V54.3125ZM97.0625 70.5625H98.8125C99.1042 71.8125 99.4375 73.0417 99.8125 74.25C100.188 75.4583 100.708 76.5208 101.375 77.4375C102.083 78.3958 102.979 79.1667 104.062 79.75C105.146 80.2917 106.562 80.5625 108.312 80.5625C111.521 80.5625 114.146 79.7083 116.188 78C118.229 76.2917 119.25 74.1458 119.25 71.5625C119.25 70.0625 118.979 68.75 118.438 67.625C117.896 66.4583 117.188 65.4375 116.312 64.5625C115.396 63.6875 114.333 62.8958 113.125 62.1875C111.958 61.4792 110.729 60.7708 109.438 60.0625C108.104 59.3958 106.792 58.6458 105.5 57.8125C104.208 56.9792 103.021 56.0417 101.938 55C100.896 53.9167 100.042 52.7083 99.375 51.375C98.75 50 98.4375 48.4583 98.4375 46.75C98.4375 44.5417 98.7917 42.625 99.5 41C100.208 39.375 101.188 38.0417 102.438 37C103.688 35.9167 105.146 35.125 106.812 34.625C108.479 34.0833 110.271 33.8125 112.188 33.8125C112.812 33.8125 113.417 33.8542 114 33.9375C114.583 33.9792 115.167 34.0208 115.75 34.0625C116.333 34.1458 116.917 34.25 117.5 34.375C118.125 34.4583 118.792 34.5417 119.5 34.625L120.562 43.25H118.938C118.521 40.75 117.792 38.875 116.75 37.625C115.708 36.375 113.875 35.75 111.25 35.75C108 35.75 105.562 36.625 103.938 38.375C102.354 40.0833 101.562 42.125 101.562 44.5C101.562 46 101.896 47.3542 102.562 48.5625C103.229 49.7292 104.083 50.7917 105.125 51.75C106.208 52.7083 107.417 53.5625 108.75 54.3125C110.083 55.0625 111.438 55.7708 112.812 56.4375C114.146 57.1458 115.417 57.8958 116.625 58.6875C117.875 59.4375 118.979 60.2917 119.938 61.25C120.896 62.25 121.667 63.3958 122.25 64.6875C122.833 65.9375 123.125 67.375 123.125 69C123.125 71.25 122.667 73.2292 121.75 74.9375C120.875 76.6042 119.729 78.0208 118.312 79.1875C116.854 80.3125 115.208 81.1667 113.375 81.75C111.583 82.2917 109.771 82.5625 107.938 82.5625C106.229 82.5625 104.562 82.3958 102.938 82.0625C101.354 81.7292 99.8958 81.25 98.5625 80.625L97.0625 70.5625ZM132.625 40.25C132.625 39.1667 132.562 38.3125 132.438 37.6875C132.354 37.0208 132.167 36.5 131.875 36.125C131.583 35.7917 131.146 35.5833 130.562 35.5C130.021 35.4167 129.312 35.375 128.438 35.375V34.125C129.771 33.875 131.062 33.5 132.312 33C133.604 32.4583 134.729 31.75 135.688 30.875H136.812C136.688 32 136.604 33.2083 136.562 34.5C136.521 35.75 136.5 36.875 136.5 37.875V57.875C137.125 57.1667 137.833 56.4167 138.625 55.625C139.458 54.8333 140.333 54.0833 141.25 53.375C142.208 52.7083 143.208 52.1458 144.25 51.6875C145.333 51.2292 146.438 51 147.562 51C150.146 51 152.167 51.9583 153.625 53.875C155.083 55.7917 155.812 58.1875 155.812 61.0625V75.0625C155.812 76.0208 155.833 76.8125 155.875 77.4375C155.958 78.0625 156.146 78.5625 156.438 78.9375C156.729 79.3125 157.188 79.5833 157.812 79.75C158.438 79.875 159.292 79.9375 160.375 79.9375V81.5C159.792 81.5 159.229 81.5 158.688 81.5C158.188 81.5 157.688 81.4792 157.188 81.4375C156.688 81.4375 156.167 81.4375 155.625 81.4375C155.083 81.3958 154.5 81.375 153.875 81.375C153.25 81.375 152.667 81.3958 152.125 81.4375C151.625 81.4375 151.125 81.4375 150.625 81.4375C150.125 81.4375 149.604 81.4583 149.062 81.5C148.562 81.5 148.021 81.5 147.438 81.5V79.9375C148.354 79.9375 149.104 79.8958 149.688 79.8125C150.312 79.7292 150.792 79.5208 151.125 79.1875C151.458 78.8542 151.688 78.375 151.812 77.75C151.938 77.0833 152 76.1875 152 75.0625V64.9375C152 62.8958 151.875 61.2292 151.625 59.9375C151.417 58.6042 151.042 57.5417 150.5 56.75C150 55.9583 149.312 55.4167 148.438 55.125C147.604 54.7917 146.562 54.625 145.312 54.625C143.771 54.625 142.167 55.2083 140.5 56.375C138.833 57.5 137.5 58.75 136.5 60.125V75.0625C136.5 77.0208 136.75 78.3333 137.25 79C137.792 79.625 139.062 79.9375 141.062 79.9375V81.5C140.438 81.5 139.875 81.5 139.375 81.5C138.875 81.5 138.375 81.4792 137.875 81.4375C137.375 81.4375 136.854 81.4375 136.312 81.4375C135.812 81.3958 135.271 81.375 134.688 81.375C134.062 81.375 133.479 81.3958 132.938 81.4375C132.438 81.4375 131.938 81.4375 131.438 81.4375C130.896 81.4375 130.354 81.4583 129.812 81.5C129.312 81.5 128.771 81.5 128.188 81.5V79.9375C130.062 79.9375 131.271 79.625 131.812 79C132.354 78.375 132.625 77.0625 132.625 75.0625V40.25ZM172.812 75.75C172.812 77.5417 173.104 78.6875 173.688 79.1875C174.271 79.6875 175.479 79.9375 177.312 79.9375V81.5C176.729 81.5 176.188 81.5 175.688 81.5C175.188 81.5 174.688 81.4792 174.188 81.4375C173.688 81.4375 173.167 81.4375 172.625 81.4375C172.125 81.3958 171.583 81.375 171 81.375C170.375 81.375 169.792 81.3958 169.25 81.4375C168.75 81.4375 168.25 81.4375 167.75 81.4375C167.208 81.4375 166.667 81.4583 166.125 81.5C165.625 81.5 165.083 81.5 164.5 81.5V79.9375C166.333 79.9375 167.542 79.6875 168.125 79.1875C168.708 78.6875 169 77.5417 169 75.75V60.4375C169 59.3125 168.958 58.4167 168.875 57.75C168.792 57.0833 168.625 56.5625 168.375 56.1875C168.125 55.8125 167.75 55.5625 167.25 55.4375C166.75 55.3125 166.062 55.25 165.188 55.25V53.9375C166.521 53.7292 167.729 53.4167 168.812 53C169.938 52.5833 170.979 51.9375 171.938 51.0625H173.062C172.938 52.1875 172.854 53.3958 172.812 54.6875C172.812 55.9375 172.812 57.0625 172.812 58.0625V75.75ZM167.688 37.375C167.688 36.5417 167.979 35.8125 168.562 35.1875C169.188 34.5625 169.917 34.25 170.75 34.25C171.583 34.25 172.312 34.5625 172.938 35.1875C173.562 35.8125 173.875 36.5417 173.875 37.375C173.875 38.2083 173.562 38.9375 172.938 39.5625C172.312 40.1458 171.583 40.4375 170.75 40.4375C169.917 40.4375 169.188 40.1458 168.562 39.5625C167.979 38.9375 167.688 38.2083 167.688 37.375ZM199.438 52.75V55.5H190.938V75.6875C190.938 77.5208 191.417 78.6875 192.375 79.1875C193.333 79.6875 194.917 79.9375 197.125 79.9375V81.5C196.042 81.4583 194.812 81.4375 193.438 81.4375C192.104 81.3958 190.729 81.375 189.312 81.375C187.938 81.375 186.583 81.3958 185.25 81.4375C183.917 81.4375 182.75 81.4583 181.75 81.5V79.9375C183.625 79.9375 184.979 79.6042 185.812 78.9375C186.688 78.2708 187.125 77.1458 187.125 75.5625V55.5H182.375V54.25C183.458 54.125 184.521 53.7917 185.562 53.25C186.604 52.6667 187.125 51.6458 187.125 50.1875C187.125 49.0625 187.229 47.7917 187.438 46.375C187.646 44.9583 187.979 43.5417 188.438 42.125C188.854 40.75 189.375 39.4375 190 38.1875C190.667 36.8958 191.438 35.8333 192.312 35C193.938 33.3333 195.458 32.1667 196.875 31.5C198.333 30.8333 199.312 30.5 199.812 30.5C200.771 30.5 201.521 30.7292 202.062 31.1875C202.604 31.6042 202.875 32.25 202.875 33.125C202.875 33.875 202.562 34.4375 201.938 34.8125C201.354 35.1875 200.833 35.375 200.375 35.375C200.042 35.375 199.771 35.3542 199.562 35.3125C199.354 35.2292 199.104 35.1458 198.812 35.0625C198.562 34.9792 198.229 34.8958 197.812 34.8125C197.396 34.7292 196.854 34.6875 196.188 34.6875C195.229 34.6875 194.417 34.9583 193.75 35.5C193.125 36.0417 192.583 36.7083 192.125 37.5C191.708 38.2917 191.396 39.125 191.188 40C191.021 40.875 190.938 41.6458 190.938 42.3125V52.75H199.438ZM210.125 73.3125C210.125 75.7292 210.479 77.375 211.188 78.25C211.896 79.125 212.854 79.5625 214.062 79.5625C214.438 79.5625 214.896 79.5 215.438 79.375C216.021 79.25 216.583 79.0833 217.125 78.875C217.708 78.6667 218.229 78.4583 218.688 78.25C219.146 78.0417 219.5 77.8333 219.75 77.625L220.312 78.5C219.104 79.75 217.833 80.75 216.5 81.5C215.167 82.2083 213.708 82.5625 212.125 82.5625C210.292 82.5625 208.854 82.0417 207.812 81C206.771 79.9583 206.25 78.4375 206.25 76.4375V55.5H201.875V54.3125C203.958 53.7292 205.521 52.7083 206.562 51.25C207.604 49.7917 208.354 47.75 208.812 45.125H210.125V52.75H220.125V55.5H210.125V73.3125Z" fill="black"/>
</svg>
