<svg width="120" height="117" viewBox="0 0 120 117" fill="none" xmlns="http://www.w3.org/2000/svg">
<path d="M1 19C1 9.05887 9.05888 1 19 1H59.75H100.5C110.441 1 118.5 9.05888 118.5 19V58.5V98C118.5 107.941 110.441 116 100.5 116H19C9.05887 116 1 107.941 1 98V19Z" stroke="black" stroke-width="2"/>
<path d="M78.875 45.4375H77.1875C77.1458 44.2292 77.0417 43.2292 76.875 42.4375C76.75 41.6458 76.4583 41.0208 76 40.5625C75.5 40.0625 74.8125 39.7292 73.9375 39.5625C73.0625 39.3542 71.875 39.25 70.375 39.25H61.5V75.125C61.5 76.5417 61.5833 77.6875 61.75 78.5625C61.9167 79.4375 62.2292 80.125 62.6875 80.625C63.1458 81.125 63.7708 81.4792 64.5625 81.6875C65.3542 81.8542 66.375 81.9375 67.625 81.9375V83.5C66.5417 83.5 65.2708 83.5 63.8125 83.5C62.3958 83.4583 60.9375 83.4375 59.4375 83.4375C57.8958 83.4375 56.3958 83.4375 54.9375 83.4375C53.5208 83.4375 52.2917 83.4583 51.25 83.5V81.9375C53.625 81.9375 55.2292 81.5 56.0625 80.625C56.8958 79.75 57.3125 77.9167 57.3125 75.125V39.25H49.6875C48.1458 39.25 46.875 39.3542 45.875 39.5625C44.9167 39.7292 44.125 40.0417 43.5 40.5C42.875 40.9583 42.375 41.5833 42 42.375C41.6667 43.1667 41.3542 44.1875 41.0625 45.4375H39.375L40.0625 36.8125C42.7708 36.9375 45.8333 37.0208 49.25 37.0625C52.6667 37.1042 56.1458 37.125 59.6875 37.125C63.2708 37.125 66.7708 37.1042 70.1875 37.0625C73.6042 37.0208 76.6875 36.9375 79.4375 36.8125L78.875 45.4375Z" fill="black"/>
</svg>
