<svg width="120" height="117" viewBox="0 0 120 117" fill="none" xmlns="http://www.w3.org/2000/svg">
<path d="M1 19C1 9.05887 9.05888 1 19 1H59.75H100.5C110.441 1 118.5 9.05888 118.5 19V58.5V98C118.5 107.941 110.441 116 100.5 116H19C9.05887 116 1 107.941 1 98V19Z" stroke="black" stroke-width="2"/>
<path d="M81.5625 39.4375C80.4792 39.4375 79.5833 39.5208 78.875 39.6875C78.2083 39.8125 77.6875 40.0833 77.3125 40.5C76.8958 40.9167 76.625 41.5208 76.5 42.3125C76.375 43.1042 76.3125 44.1667 76.3125 45.5V69.625C76.3125 71.9583 75.9583 74.1042 75.25 76.0625C74.5417 78.0208 73.5 79.6875 72.125 81.0625C70.75 82.4792 69.0417 83.5833 67 84.375C64.9583 85.1667 62.6042 85.5625 59.9375 85.5625C54.8125 85.5625 50.75 84.2292 47.75 81.5625C44.7917 78.8958 43.2708 74.6667 43.1875 68.875V45.6875C43.1875 44.3542 43.0833 43.2917 42.875 42.5C42.7083 41.6667 42.375 41.0417 41.875 40.625C41.4167 40.1667 40.7917 39.875 40 39.75C39.2083 39.5833 38.2292 39.4792 37.0625 39.4375V37.8125C37.8542 37.8542 38.9792 37.8958 40.4375 37.9375C41.9375 37.9375 43.5208 37.9375 45.1875 37.9375C46.8125 37.9375 48.375 37.9375 49.875 37.9375C51.4167 37.8958 52.625 37.8542 53.5 37.8125V39.4375C52.25 39.4792 51.2292 39.5833 50.4375 39.75C49.6458 39.875 49.0208 40.1667 48.5625 40.625C48.1042 41.0417 47.7708 41.6667 47.5625 42.5C47.3958 43.2917 47.3125 44.3542 47.3125 45.6875V67.125C47.3125 72.5833 48.4583 76.5833 50.75 79.125C53.0833 81.6667 56.7292 82.9375 61.6875 82.9375C63.5208 82.9375 65.2083 82.625 66.75 82C68.2917 81.375 69.625 80.4792 70.75 79.3125C71.875 78.1458 72.75 76.75 73.375 75.125C74 73.4583 74.3125 71.625 74.3125 69.625V45.6875C74.3125 44.3125 74.2292 43.2292 74.0625 42.4375C73.9375 41.6042 73.6875 40.9792 73.3125 40.5625C72.8958 40.1458 72.3125 39.875 71.5625 39.75C70.8542 39.625 69.8958 39.5417 68.6875 39.5V37.8125C69.3542 37.8542 70.2917 37.8958 71.5 37.9375C72.75 37.9375 74.0208 37.9375 75.3125 37.9375C76.5625 37.9375 77.7708 37.9375 78.9375 37.9375C80.1042 37.8958 80.9792 37.8542 81.5625 37.8125V39.4375Z" fill="black"/>
</svg>
