<svg width="120" height="117" viewBox="0 0 120 117" fill="none" xmlns="http://www.w3.org/2000/svg">
<path d="M1 19C1 9.05887 9.05888 1 19 1H59.75H100.5C110.441 1 118.5 9.05888 118.5 19V58.5V98C118.5 107.941 110.441 116 100.5 116H19C9.05887 116 1 107.941 1 98V19Z" stroke="black" stroke-width="2"/>
<path d="M44.3125 47.1875C43.7708 45.8125 43.2708 44.6875 42.8125 43.8125C42.3542 42.9375 41.8542 42.25 41.3125 41.75C40.7708 41.25 40.125 40.9167 39.375 40.75C38.6667 40.5417 37.75 40.4375 36.625 40.4375V38.8125C37.4167 38.8958 38.5208 38.9375 39.9375 38.9375C41.3542 38.9375 42.8333 38.9375 44.375 38.9375C45.9167 38.9375 47.3958 38.9375 48.8125 38.9375C50.2708 38.8958 51.4167 38.8542 52.25 38.8125V40.5C50.9583 40.5417 49.9583 40.6458 49.25 40.8125C48.5833 40.9792 48.125 41.2917 47.875 41.75C47.6667 42.25 47.6458 42.9167 47.8125 43.75C48.0208 44.5833 48.3958 45.6875 48.9375 47.0625L61.25 80.0625L73.8125 46.4375C74.2708 45.1458 74.5417 44.125 74.625 43.375C74.75 42.5833 74.6875 41.9792 74.4375 41.5625C74.1458 41.1458 73.6458 40.875 72.9375 40.75C72.2708 40.625 71.375 40.5417 70.25 40.5V38.8125C71.0417 38.8542 71.9792 38.8958 73.0625 38.9375C74.1875 38.9792 75.3125 39 76.4375 39C77.5625 39 78.625 39 79.625 39C80.625 39 81.4167 38.9583 82 38.875V40.4375C81.1667 40.4375 80.4583 40.5208 79.875 40.6875C79.3333 40.8542 78.8542 41.1458 78.4375 41.5625C77.9792 42.0208 77.5417 42.6667 77.125 43.5C76.75 44.3333 76.3125 45.4167 75.8125 46.75L60.75 86.5625H59.75L44.3125 47.1875Z" fill="black"/>
</svg>
