<svg width="120" height="117" viewBox="0 0 120 117" fill="none" xmlns="http://www.w3.org/2000/svg">
<path d="M1 19C1 9.05887 9.05888 1 19 1H59.75H100.5C110.441 1 118.5 9.05888 118.5 19V58.5V98C118.5 107.941 110.441 116 100.5 116H19C9.05887 116 1 107.941 1 98V19Z" stroke="black" stroke-width="2"/>
<path d="M52.125 86.5625H51.0625L34.375 45.8125C33.9583 44.8958 33.5833 44.1042 33.25 43.4375C32.9167 42.7292 32.5208 42.1667 32.0625 41.75C31.5625 41.2917 30.9375 40.9583 30.1875 40.75C29.4792 40.5417 28.5417 40.4375 27.375 40.4375V38.8125C28.0833 38.8958 29.125 38.9375 30.5 38.9375C31.875 38.9375 33.3125 38.9375 34.8125 38.9375C36.2708 38.9375 37.6667 38.9375 39 38.9375C40.3333 38.8958 41.3333 38.8542 42 38.8125V40.4375C40.0417 40.4375 38.8125 40.7708 38.3125 41.4375C37.8125 42.1042 38 43.5625 38.875 45.8125L52.6875 80.5L60.875 62.875L53.625 45.9375C52.75 43.9375 51.8958 42.5208 51.0625 41.6875C50.2292 40.8542 48.75 40.4375 46.625 40.4375V38.8125C47.4167 38.8958 48.4792 38.9583 49.8125 39C51.1458 39 52.5208 39 53.9375 39C55.3125 39 56.6042 39 57.8125 39C59.0208 38.9583 59.9167 38.8958 60.5 38.8125V40.4375C58.7083 40.4375 57.625 40.7708 57.25 41.4375C56.875 42.1042 57.1875 43.625 58.1875 46L63.125 57.9375L68.5625 46.3125C69.5625 44.0208 69.875 42.4792 69.5 41.6875C69.125 40.8542 67.7292 40.4375 65.3125 40.4375V38.8125C65.9375 38.8958 66.7708 38.9375 67.8125 38.9375C68.8958 38.9375 70.0208 38.9375 71.1875 38.9375C72.3125 38.9375 73.375 38.9375 74.375 38.9375C75.375 38.8958 76.125 38.8542 76.625 38.8125V40.4375C75.75 40.4375 75 40.625 74.375 41C73.7917 41.3333 73.2917 41.7708 72.875 42.3125C72.4167 42.8542 72.0208 43.4792 71.6875 44.1875C71.3542 44.8542 71.0417 45.5 70.75 46.125L64.1875 60.4375L72.25 80L84.6875 46.6875C85.6458 44.0208 85.875 42.3333 85.375 41.625C84.875 40.875 83.5417 40.4792 81.375 40.4375V38.8125C82 38.8958 82.8125 38.9375 83.8125 38.9375C84.8125 38.9375 85.8333 38.9375 86.875 38.9375C87.9583 38.9375 88.9375 38.9375 89.8125 38.9375C90.7292 38.8958 91.4167 38.8542 91.875 38.8125V40.4375C91.0417 40.4375 90.3958 40.5625 89.9375 40.8125C89.4792 41.0208 89.0833 41.375 88.75 41.875C88.375 42.3333 88.0417 42.9583 87.75 43.75C87.5 44.5417 87.1667 45.5 86.75 46.625L72 86.5625H70.9375L61.9375 65.375L52.125 86.5625Z" fill="black"/>
</svg>
