<svg width="120" height="117" viewBox="0 0 120 117" fill="none" xmlns="http://www.w3.org/2000/svg">
<path d="M1 19C1 9.05887 9.05888 1 19 1H59.75H100.5C110.441 1 118.5 9.05888 118.5 19V58.5V98C118.5 107.941 110.441 116 100.5 116H19C9.05887 116 1 107.941 1 98V19Z" stroke="black" stroke-width="2"/>
<path d="M47.875 75.8125C45.875 78.4375 44.9792 80.125 45.1875 80.875C45.3958 81.5833 46.9167 81.9375 49.75 81.9375V83.5C47.75 83.4583 45.4167 83.4375 42.75 83.4375C40.125 83.3958 37.8125 83.4167 35.8125 83.5V81.9375C36.6458 81.9375 37.4375 81.8542 38.1875 81.6875C38.9375 81.4792 39.6875 81.1458 40.4375 80.6875C41.1875 80.2292 41.9792 79.5833 42.8125 78.75C43.6458 77.875 44.6042 76.75 45.6875 75.375L57.0625 60.625L44.25 43.875C42.8333 42 41.5833 40.625 40.5 39.75C39.4167 38.875 37.9583 38.4375 36.125 38.4375V36.8125C37.1667 36.8958 38.375 36.9583 39.75 37C41.125 37 42.5417 37 44 37C45.4167 37 46.7917 36.9792 48.125 36.9375C49.5 36.8958 50.6667 36.8542 51.625 36.8125V38.4375C49.375 38.4792 47.9583 38.8125 47.375 39.4375C46.7917 40.0625 47.1875 41.2708 48.5625 43.0625L59.6875 57.25L69.75 44.0625C70.625 42.8958 71.1875 41.9583 71.4375 41.25C71.6875 40.5 71.6875 39.9167 71.4375 39.5C71.1875 39.125 70.7083 38.8542 70 38.6875C69.2917 38.5208 68.4375 38.4375 67.4375 38.4375V36.8125C68.3125 36.8958 69.3542 36.9375 70.5625 36.9375C71.7708 36.9375 73.0208 36.9375 74.3125 36.9375C75.5625 36.9375 76.7917 36.9375 78 36.9375C79.2083 36.8958 80.2708 36.8542 81.1875 36.8125V38.4375C79.9792 38.4375 78.9375 38.5833 78.0625 38.875C77.2292 39.125 76.4792 39.5 75.8125 40C75.1042 40.5 74.4167 41.125 73.75 41.875C73.125 42.625 72.4583 43.4792 71.75 44.4375L60.8125 58.75L74.5 76.3125C76 78.3125 77.3125 79.7083 78.4375 80.5C79.5625 81.2917 80.9375 81.7708 82.5625 81.9375V83.5C80.3125 83.4167 77.8333 83.3958 75.125 83.4375C72.4167 83.4375 70.125 83.4583 68.25 83.5V81.9375C70.25 82.0625 71.4375 81.8542 71.8125 81.3125C72.1875 80.7292 71.7292 79.625 70.4375 78L58.25 62.125L47.875 75.8125Z" fill="black"/>
</svg>
