<svg width="120" height="117" viewBox="0 0 120 117" fill="none" xmlns="http://www.w3.org/2000/svg">
<path d="M1 19C1 9.05887 9.05888 1 19 1H59.75H100.5C110.441 1 118.5 9.05888 118.5 19V58.5V98C118.5 107.941 110.441 116 100.5 116H19C9.05887 116 1 107.941 1 98V19Z" stroke="black" stroke-width="2"/>
<path d="M62.3125 74.875C62.3125 77.2917 62.7083 78.9167 63.5 79.75C64.3333 80.5417 65.9792 80.9375 68.4375 80.9375V82.5C67.2292 82.4583 65.8958 82.4375 64.4375 82.4375C63.0208 82.3958 61.5833 82.375 60.125 82.375C58.6667 82.375 57.2292 82.3958 55.8125 82.4375C54.3958 82.4375 53.1458 82.4583 52.0625 82.5V80.9375C54.4375 80.9375 56.0417 80.5625 56.875 79.8125C57.7083 79.0208 58.125 77.375 58.125 74.875V60.0625L44.9375 41.5C44.2708 40.625 43.6667 39.9167 43.125 39.375C42.625 38.8333 42.1042 38.4375 41.5625 38.1875C41.0208 37.8958 40.4583 37.7083 39.875 37.625C39.2917 37.5417 38.625 37.5 37.875 37.5V35.875C38.7917 35.9583 39.8958 36 41.1875 36C42.4792 36 43.8125 36 45.1875 36C46.5625 36 47.9167 35.9792 49.25 35.9375C50.625 35.8958 51.8542 35.8542 52.9375 35.8125V37.4375C51.1458 37.4375 49.9792 37.75 49.4375 38.375C48.8958 38.9583 49.1667 40 50.25 41.5L61.5625 57.1875L73.25 41.3125C74.2917 39.9375 74.5833 38.9375 74.125 38.3125C73.7083 37.6875 72.3125 37.3958 69.9375 37.4375V35.8125C71.6875 35.8958 73.5208 35.9375 75.4375 35.9375C77.3542 35.9375 79.125 35.8958 80.75 35.8125V37.4375C80.0417 37.4792 79.4583 37.5833 79 37.75C78.5417 37.9167 78.1042 38.1667 77.6875 38.5C77.3125 38.8333 76.9167 39.2708 76.5 39.8125C76.0833 40.3542 75.6042 41 75.0625 41.75L62.3125 59.0625V74.875Z" fill="black"/>
</svg>
