<svg width="120" height="117" viewBox="0 0 120 117" fill="none" xmlns="http://www.w3.org/2000/svg">
<path d="M1 19C1 9.05887 9.05888 1 19 1H59.75H100.5C110.441 1 118.5 9.05888 118.5 19V58.5V98C118.5 107.941 110.441 116 100.5 116H19C9.05887 116 1 107.941 1 98V19Z" stroke="black" stroke-width="2"/>
<path d="M77.8125 83.5C75.3542 83.4583 72.2917 83.4167 68.625 83.375C64.9583 83.3333 61.2083 83.3125 57.375 83.3125C53.5 83.3125 49.7917 83.3333 46.25 83.375C42.7083 83.4167 39.8333 83.4583 37.625 83.5L71.9375 39.4375H51.125C49.4167 39.4375 48.0417 39.5833 47 39.875C45.9583 40.125 45.1042 40.5208 44.4375 41.0625C43.7708 41.6458 43.2292 42.3958 42.8125 43.3125C42.4375 44.1875 42.0625 45.25 41.6875 46.5H39.875L41.6875 36.8125C44.3542 36.9375 47.3333 37.0208 50.625 37.0625C53.9167 37.1042 57.25 37.125 60.625 37.125C64 37.125 67.2917 37.1042 70.5 37.0625C73.7083 37.0208 76.5833 36.9375 79.125 36.8125L44.9375 80.875H63.5625C66.1875 80.875 68.3542 80.75 70.0625 80.5C71.7708 80.2083 73.1875 79.7083 74.3125 79C75.4375 78.3333 76.3542 77.4375 77.0625 76.3125C77.8125 75.1875 78.5417 73.7708 79.25 72.0625H80.875L77.8125 83.5Z" fill="black"/>
</svg>
