<svg width="120" height="117" viewBox="0 0 120 117" fill="none" xmlns="http://www.w3.org/2000/svg">
<path d="M1 19C1 9.05887 9.05888 1 19 1H59.75H100.5C110.441 1 118.5 9.05888 118.5 19V58.5V98C118.5 107.941 110.441 116 100.5 116H19C9.05887 116 1 107.941 1 98V19Z" stroke="black" stroke-width="2"/>
<path d="M59.6875 52.5C59.6875 54.7917 59.25 56.5208 58.375 57.6875C57.5417 58.8125 56.3542 59.6667 54.8125 60.25C55.6875 60.6667 56.4167 61.1042 57 61.5625C57.625 62.0208 58.125 62.5625 58.5 63.1875C58.9167 63.8125 59.2083 64.5625 59.375 65.4375C59.5833 66.2708 59.6875 67.2708 59.6875 68.4375V82.0625C59.6875 83.1875 59.7708 84.1458 59.9375 84.9375C60.1458 85.7292 60.4792 86.3958 60.9375 86.9375C61.4375 87.4792 62.0833 87.875 62.875 88.125C63.6667 88.4167 64.6667 88.6042 65.875 88.6875V89.8125C64.0417 89.8125 62.5 89.6458 61.25 89.3125C60.0417 89.0208 59.0417 88.5208 58.25 87.8125C57.5 87.1042 56.9583 86.1458 56.625 84.9375C56.2917 83.7292 56.125 82.25 56.125 80.5V67.8125C56.125 63.9375 54.3125 61.5417 50.6875 60.625V59.9375C52.4375 59.5625 53.7708 58.7917 54.6875 57.625C55.6042 56.4167 56.0625 54.875 56.0625 53V39.125C56.0625 36.1667 56.9167 34.0625 58.625 32.8125C60.3333 31.5625 62.8125 30.9375 66.0625 30.9375L66 32.1875C63.6667 32.2292 62.0208 32.7292 61.0625 33.6875C60.1458 34.6458 59.6875 36.25 59.6875 38.5V52.5Z" fill="black"/>
</svg>
