<svg width="120" height="117" viewBox="0 0 120 117" fill="none" xmlns="http://www.w3.org/2000/svg">
<path d="M1 19C1 9.05887 9.05888 1 19 1H59.75H100.5C110.441 1 118.5 9.05888 118.5 19V58.5V98C118.5 107.941 110.441 116 100.5 116H19C9.05887 116 1 107.941 1 98V19Z" stroke="black" stroke-width="2"/>
<path d="M59.5625 68.4375C59.5625 67.2708 59.6458 66.2708 59.8125 65.4375C60.0208 64.5625 60.3125 63.8125 60.6875 63.1875C61.1042 62.5625 61.6042 62.0208 62.1875 61.5625C62.8125 61.1042 63.5625 60.6667 64.4375 60.25C62.9375 59.6667 61.75 58.8125 60.875 57.6875C60 56.5208 59.5625 54.7917 59.5625 52.5V38.5C59.5625 36.25 59.0833 34.6458 58.125 33.6875C57.2083 32.7292 55.5833 32.2292 53.25 32.1875L53.1875 30.9375C56.4375 30.9375 58.9167 31.5625 60.625 32.8125C62.3333 34.0625 63.1875 36.1667 63.1875 39.125V53C63.1875 54.875 63.6458 56.4167 64.5625 57.625C65.4792 58.7917 66.8125 59.5625 68.5625 59.9375V60.625C64.9375 61.5417 63.125 63.9375 63.125 67.8125V80.5C63.125 82.25 62.9583 83.7292 62.625 84.9375C62.2917 86.1458 61.7292 87.1042 60.9375 87.8125C60.1875 88.5208 59.1875 89.0208 57.9375 89.3125C56.7292 89.6458 55.2292 89.8125 53.4375 89.8125V88.6875C55.8125 88.5208 57.4167 87.9375 58.25 86.9375C59.125 85.9375 59.5625 84.3125 59.5625 82.0625V68.4375Z" fill="black"/>
</svg>
